SplineFontDB: 3.0
FontName: Carme
FullName: Carme
FamilyName: Carme
Weight: Book
Copyright: Copyright (c) 2010-2011, Ruben Prol (ipanemagrafica@gmail.com|www.ipanemagrafica.com)
Version: 1.000
ItalicAngle: 0
UnderlinePosition: -50
UnderlineWidth: 50
Ascent: 800
Descent: 200
sfntRevision: 0x00010000
LayerCount: 2
Layer: 0 1 "Back"  1
Layer: 1 1 "Fore"  0
XUID: [1021 288 713564382 4771096]
FSType: 0
OS2Version: 2
OS2_WeightWidthSlopeOnly: 0
OS2_UseTypoMetrics: 1
CreationTime: 1301717600
ModificationTime: 1304688667
PfmFamily: 17
TTFWeight: 400
TTFWidth: 5
LineGap: 0
VLineGap: 0
Panose: 2 0 0 0 0 0 0 0 0 0
OS2TypoAscent: 150
OS2TypoAOffset: 1
OS2TypoDescent: -50
OS2TypoDOffset: 1
OS2TypoLinegap: 0
OS2WinAscent: 0
OS2WinAOffset: 1
OS2WinDescent: 0
OS2WinDOffset: 1
HheadAscent: 0
HheadAOffset: 1
HheadDescent: 0
HheadDOffset: 1
OS2SubXSize: 700
OS2SubYSize: 650
OS2SubXOff: 0
OS2SubYOff: 140
OS2SupXSize: 700
OS2SupYSize: 650
OS2SupXOff: 0
OS2SupYOff: 477
OS2StrikeYSize: 50
OS2StrikeYPos: 250
OS2Vendor: 'pyrs'
OS2CodePages: 00000001.00000000
OS2UnicodeRanges: 8000002f.4000004a.00000000.00000000
Lookup: 258 0 0 "'kern' Horizontal Kerning in Latin lookup 0"  {"'kern' Horizontal Kerning in Latin lookup 0 subtable"  } ['kern' ('DFLT' <'dflt' > 'latn' <'dflt' > ) ]
DEI: 91125
TtTable: prep
PUSHW_1
 511
SCANCTRL
PUSHB_1
 4
SCANTYPE
EndTTInstrs
ShortTable: maxp 16
  1
  0
  204
  70
  7
  0
  0
  2
  0
  1
  1
  0
  64
  0
  0
  0
EndShort
LangName: 1033 "" "" "Regular" "RubenProl: Carme: 2011" "" "1.000" "" "Ipanema Grafica" "Ruben Prol" "Ipanema Grafica" "" "" "http://www.ipanemagrafica.com" "Copyright (c) 2010-2011, Rub+AOkA-n Prol (ipanemagrafica@gmail.com|www.ipanemagrafica.com)+AA0ACgAA-This Font Software is licensed under the SIL Open Font License, Version 1.1.+AA0ACgAA-This license is available with a FAQ at: http://scripts.sil.org/OFL" "http://scripts.sil.org/OFL" 
GaspTable: 1 65535 15
Encoding: UnicodeBmp
UnicodeInterp: none
NameList: Adobe Glyph List
DisplaySize: -48

StartChar: exclam
Encoding: 33 33 4
Width: 300
Flags: W
LayerCount: 2
Fore
SplineSet
200 100 m 1,0,-1
 200 0 l 1,1,-1
 100 0 l 1,2,-1
 100 100 l 1,3,-1
 200 100 l 1,0,-1
200 700 m 1,4,-1
 200 201 l 1,5,-1
 100 201 l 1,6,-1
 100 700 l 1,7,-1
 200 700 l 1,4,-1
EndSplineSet
EndChar

StartChar: quotedbl
Encoding: 34 34 5
Width: 480
Flags: W
LayerCount: 2
Fore
SplineSet
340 770 m 1,0,-1
 330 591 l 1,1,-1
 270 591 l 1,2,-1
 260 770 l 1,3,-1
 340 770 l 1,0,-1
220 770 m 1,4,-1
 210 591 l 1,5,-1
 150 591 l 1,6,-1
 140 770 l 1,7,-1
 220 770 l 1,4,-1
EndSplineSet
EndChar

StartChar: numbersign
Encoding: 35 35 6
Width: 641
Flags: W
LayerCount: 2
Fore
SplineSet
237 470 m 1,0,-1
 198 230 l 1,1,-1
 408 230 l 1,2,-1
 447 470 l 1,3,-1
 237 470 l 1,0,-1
20 530 m 1,4,-1
 167 530 l 1,5,-1
 195 700 l 1,6,-1
 275 700 l 1,7,-1
 247 530 l 1,8,-1
 457 530 l 1,9,-1
 485 700 l 1,10,-1
 565 700 l 1,11,-1
 537 530 l 1,12,-1
 620 530 l 1,13,-1
 620 470 l 1,14,-1
 527 470 l 1,15,-1
 488 230 l 1,16,-1
 620 230 l 1,17,-1
 620 170 l 1,18,-1
 478 170 l 1,19,-1
 451 0 l 1,20,-1
 371 0 l 1,21,-1
 398 170 l 1,22,-1
 188 170 l 1,23,-1
 161 0 l 1,24,-1
 81 0 l 1,25,-1
 108 170 l 1,26,-1
 20 170 l 1,27,-1
 20 230 l 1,28,-1
 118 230 l 1,29,-1
 157 470 l 1,30,-1
 20 470 l 1,31,-1
 20 530 l 1,4,-1
EndSplineSet
EndChar

StartChar: dollar
Encoding: 36 36 7
Width: 466
Flags: W
LayerCount: 2
Fore
SplineSet
108 540 m 0,0,1
 108 483 108 483 202 434 c 1,2,-1
 202 635 l 1,3,4
 161 626 161 626 134.5 602 c 128,-1,5
 108 578 108 578 108 540 c 0,0,1
358 182 m 0,6,7
 358 252 358 252 272 308 c 1,8,-1
 272 70 l 1,9,10
 310 83 310 83 334 112.5 c 128,-1,11
 358 142 358 142 358 182 c 0,6,7
272 -9 m 1,12,-1
 272 -90 l 1,13,-1
 202 -90 l 1,14,-1
 202 -14 l 1,15,16
 134 -10 134 -10 68 31 c 0,17,18
 43 47 43 47 18 70 c 1,19,-1
 53 145 l 1,20,21
 80 122 80 122 101 108 c 0,22,23
 160 68 160 68 202 62 c 1,24,-1
 202 347 l 1,25,26
 105 398 105 398 74 425 c 0,27,28
 18 474 18 474 18 540 c 0,29,30
 18 609 18 609 71.5 655.5 c 128,-1,31
 125 702 125 702 202 712 c 1,32,-1
 202 760 l 1,33,-1
 272 760 l 1,34,-1
 272 713 l 1,35,36
 358 700 358 700 421 653 c 1,37,-1
 387 579 l 1,38,39
 327 623 327 623 272 635 c 1,40,-1
 272 396 l 1,41,42
 321 369 321 369 344.5 353.5 c 128,-1,43
 368 338 368 338 396.5 312 c 128,-1,44
 425 286 425 286 436.5 255 c 128,-1,45
 448 224 448 224 448 182 c 0,46,47
 448 112 448 112 397.5 59.5 c 128,-1,48
 347 7 347 7 272 -9 c 1,12,-1
EndSplineSet
EndChar

StartChar: percent
Encoding: 37 37 8
Width: 634
Flags: W
LayerCount: 2
Fore
SplineSet
397 126 m 0,0,1
 397 93 397 93 418.5 69 c 128,-1,2
 440 45 440 45 472 45 c 128,-1,3
 504 45 504 45 526 69 c 128,-1,4
 548 93 548 93 548 126 c 0,5,6
 548 160 548 160 526 184 c 128,-1,7
 504 208 504 208 472 208 c 128,-1,8
 440 208 440 208 418.5 184 c 128,-1,9
 397 160 397 160 397 126 c 0,0,1
337 126 m 0,10,11
 337 185 337 185 376.5 226.5 c 128,-1,12
 416 268 416 268 472 268 c 0,13,14
 529 268 529 268 568.5 226.5 c 128,-1,15
 608 185 608 185 608 126 c 0,16,17
 608 68 608 68 568.5 26.5 c 128,-1,18
 529 -15 529 -15 472 -15 c 0,19,20
 416 -15 416 -15 376.5 26.5 c 128,-1,21
 337 68 337 68 337 126 c 0,10,11
85 573 m 0,22,23
 85 540 85 540 106.5 516 c 128,-1,24
 128 492 128 492 160 492 c 128,-1,25
 192 492 192 492 214 516 c 128,-1,26
 236 540 236 540 236 573 c 0,27,28
 236 607 236 607 214 631 c 128,-1,29
 192 655 192 655 160 655 c 128,-1,30
 128 655 128 655 106.5 631 c 128,-1,31
 85 607 85 607 85 573 c 0,22,23
25 573 m 0,32,33
 25 632 25 632 64.5 673.5 c 128,-1,34
 104 715 104 715 160 715 c 0,35,36
 217 715 217 715 256.5 673.5 c 128,-1,37
 296 632 296 632 296 573 c 0,38,39
 296 515 296 515 256.5 473.5 c 128,-1,40
 217 432 217 432 160 432 c 0,41,42
 104 432 104 432 64.5 473.5 c 128,-1,43
 25 515 25 515 25 573 c 0,32,33
75 0 m 1,44,-1
 462 700 l 1,45,-1
 552 700 l 1,46,-1
 165 0 l 1,47,-1
 75 0 l 1,44,-1
EndSplineSet
EndChar

StartChar: ampersand
Encoding: 38 38 9
Width: 642
Flags: W
LayerCount: 2
Fore
SplineSet
324 565 m 1,0,1
 323 583 323 583 315 600 c 1,2,3
 296 635 296 635 254 635 c 0,4,5
 210 635 210 635 194 600 c 0,6,7
 188 586 188 586 186 565 c 1,8,9
 186 510 186 510 248 434 c 1,10,11
 324 496 324 496 324 565 c 1,0,1
116 181 m 0,12,13
 116 139 116 139 151.5 107 c 128,-1,14
 187 75 187 75 241 75 c 0,15,16
 312 75 312 75 378 144 c 1,17,-1
 228 317 l 1,18,19
 171 277 171 277 143.5 247 c 128,-1,20
 116 217 116 217 116 181 c 0,12,13
496 150 m 1,21,-1
 630 0 l 1,22,-1
 502 0 l 1,23,-1
 438 74 l 1,24,25
 347 -15 347 -15 239 -15 c 0,26,27
 147 -15 147 -15 86.5 39.5 c 128,-1,28
 26 94 26 94 26 173 c 0,29,30
 26 237 26 237 65.5 285.5 c 128,-1,31
 105 334 105 334 174 381 c 1,32,33
 96 465 96 465 96 558 c 0,34,35
 96 569 96 569 97 581 c 128,-1,36
 98 593 98 593 106.5 619.5 c 128,-1,37
 115 646 115 646 129.5 665 c 128,-1,38
 144 684 144 684 175.5 699.5 c 128,-1,39
 207 715 207 715 251 715 c 0,40,41
 351 715 351 715 394 636 c 0,42,43
 413 600 413 600 414 558 c 1,44,45
 414 464 414 464 301 370 c 1,46,-1
 430 222 l 1,47,48
 455 280 455 280 455 330 c 1,49,-1
 545 330 l 1,50,51
 545 234 545 234 496 150 c 1,21,-1
EndSplineSet
EndChar

StartChar: quotesingle
Encoding: 39 39 10
Width: 285
Flags: W
LayerCount: 2
Fore
SplineSet
192 770 m 1,0,-1
 152 591 l 1,1,-1
 92 591 l 1,2,-1
 112 770 l 1,3,-1
 192 770 l 1,0,-1
EndSplineSet
EndChar

StartChar: parenleft
Encoding: 40 40 11
Width: 296
Flags: W
LayerCount: 2
Fore
SplineSet
198 700 m 1,0,-1
 278 700 l 1,1,2
 95 467 95 467 95 253 c 0,3,4
 95 40 95 40 278 -200 c 1,5,-1
 198 -200 l 1,6,7
 14 33 14 33 14 255 c 0,8,9
 14 481 14 481 198 700 c 1,0,-1
EndSplineSet
EndChar

StartChar: parenright
Encoding: 41 41 12
Width: 295
Flags: W
LayerCount: 2
Fore
SplineSet
17 700 m 1,0,-1
 97 700 l 1,1,2
 281 481 281 481 281 255 c 0,3,4
 281 33 281 33 97 -200 c 1,5,-1
 17 -200 l 1,6,7
 200 40 200 40 200 253 c 0,8,9
 200 467 200 467 17 700 c 1,0,-1
EndSplineSet
EndChar

StartChar: asterisk
Encoding: 42 42 13
Width: 457
Flags: W
LayerCount: 2
Fore
SplineSet
443 533 m 1,0,-1
 292 482 l 1,1,-1
 385 354 l 1,2,3
 354 329 354 329 322 308 c 1,4,-1
 229 436 l 1,5,6
 192 387 192 387 135 308 c 1,7,-1
 71 354 l 1,8,-1
 165 482 l 1,9,10
 104 501 104 501 15 533 c 1,11,12
 18 544 18 544 27 568.5 c 128,-1,13
 36 593 36 593 40 606 c 1,14,-1
 189 555 l 1,15,-1
 189 715 l 1,16,-1
 267 715 l 1,17,-1
 267 555 l 1,18,-1
 419 606 l 1,19,20
 423 593 423 593 431.5 568 c 128,-1,21
 440 543 440 543 443 533 c 1,0,-1
EndSplineSet
EndChar

StartChar: plus
Encoding: 43 43 14
Width: 436
Flags: W
LayerCount: 2
Fore
SplineSet
8 301 m 1,0,-1
 8 391 l 1,1,-1
 173 391 l 1,2,-1
 173 546 l 1,3,-1
 263 546 l 1,4,-1
 263 391 l 1,5,-1
 428 391 l 1,6,-1
 428 301 l 1,7,-1
 263 301 l 1,8,-1
 263 146 l 1,9,-1
 173 146 l 1,10,-1
 173 301 l 1,11,-1
 8 301 l 1,0,-1
EndSplineSet
EndChar

StartChar: comma
Encoding: 44 44 15
Width: 285
Flags: W
LayerCount: 2
Fore
SplineSet
112 107 m 1,0,-1
 212 107 l 1,1,-1
 152 -123 l 1,2,-1
 82 -123 l 1,3,-1
 112 107 l 1,0,-1
EndSplineSet
EndChar

StartChar: hyphen
Encoding: 45 45 16
Width: 378
Flags: W
LayerCount: 2
Fore
SplineSet
39 178 m 1,0,-1
 39 268 l 1,1,-1
 339 268 l 1,2,-1
 339 178 l 1,3,-1
 39 178 l 1,0,-1
EndSplineSet
EndChar

StartChar: period
Encoding: 46 46 17
Width: 285
Flags: W
LayerCount: 2
Fore
SplineSet
92 107 m 1,0,-1
 192 107 l 1,1,-1
 192 0 l 1,2,-1
 92 0 l 1,3,-1
 92 107 l 1,0,-1
EndSplineSet
EndChar

StartChar: slash
Encoding: 47 47 18
Width: 279
Flags: W
LayerCount: 2
Fore
SplineSet
182 700 m 1,0,-1
 272 700 l 1,1,-1
 97 0 l 1,2,-1
 7 0 l 1,3,-1
 182 700 l 1,0,-1
EndSplineSet
EndChar

StartChar: zero
Encoding: 48 48 19
Width: 620
Flags: W
LayerCount: 2
Fore
SplineSet
500 350 m 128,-1,1
 500 477 500 477 453 558 c 128,-1,2
 406 639 406 639 314 639 c 0,3,4
 220 639 220 639 170 557.5 c 128,-1,5
 120 476 120 476 120 350 c 128,-1,6
 120 224 120 224 170 142.5 c 128,-1,7
 220 61 220 61 314 61 c 0,8,9
 406 61 406 61 453 142 c 128,-1,0
 500 223 500 223 500 350 c 128,-1,1
590 350 m 128,-1,11
 590 191 590 191 519.5 88 c 128,-1,12
 449 -15 449 -15 314 -15 c 0,13,14
 177 -15 177 -15 103.5 88.5 c 128,-1,15
 30 192 30 192 30 350 c 128,-1,16
 30 508 30 508 103.5 611.5 c 128,-1,17
 177 715 177 715 314 715 c 0,18,19
 449 715 449 715 519.5 612 c 128,-1,10
 590 509 590 509 590 350 c 128,-1,11
EndSplineSet
EndChar

StartChar: one
Encoding: 49 49 20
Width: 620
Flags: W
LayerCount: 2
Fore
SplineSet
170 670 m 1,0,-1
 381 700 l 1,1,-1
 381 0 l 1,2,-1
 291 0 l 1,3,-1
 291 617 l 1,4,-1
 170 600 l 1,5,-1
 170 670 l 1,0,-1
EndSplineSet
EndChar

StartChar: two
Encoding: 50 50 21
Width: 620
Flags: W
LayerCount: 2
Fore
SplineSet
529 90 m 1,0,-1
 529 0 l 1,1,-1
 105 0 l 1,2,-1
 105 90 l 1,3,-1
 300 283 l 2,4,5
 431 414 431 414 431 501 c 0,6,7
 431 568 431 568 393.5 603.5 c 128,-1,8
 356 639 356 639 292 639 c 0,9,10
 244 639 244 639 188 607 c 0,11,12
 167 596 167 596 141 575 c 1,13,-1
 91 637 l 1,14,15
 121 659 121 659 152 676 c 0,16,17
 228 715 228 715 294 715 c 0,18,19
 381 715 381 715 451 657 c 128,-1,20
 521 599 521 599 521 505 c 0,21,22
 521 385 521 385 351 219 c 2,23,-1
 219 90 l 1,24,-1
 529 90 l 1,0,-1
EndSplineSet
EndChar

StartChar: three
Encoding: 51 51 22
Width: 620
Flags: W
LayerCount: 2
Fore
SplineSet
85 70 m 1,0,-1
 147 119 l 1,1,2
 174 92 174 92 216 74.5 c 128,-1,3
 258 57 258 57 300 57 c 0,4,5
 363 57 363 57 403.5 99.5 c 128,-1,6
 444 142 444 142 444 208 c 0,7,8
 444 271 444 271 406 314 c 128,-1,9
 368 357 368 357 301 357 c 1,10,-1
 301 432 l 1,11,12
 351 432 351 432 377.5 460 c 128,-1,13
 404 488 404 488 404 532 c 0,14,15
 404 575 404 575 377.5 608.5 c 128,-1,16
 351 642 351 642 296 642 c 0,17,18
 226 642 226 642 166 596 c 1,19,-1
 120 655 l 1,20,21
 198 715 198 715 294 715 c 0,22,23
 389 715 389 715 442.5 662.5 c 128,-1,24
 496 610 496 610 496 540 c 0,25,26
 496 492 496 492 470 449.5 c 128,-1,27
 444 407 444 407 397 396 c 1,28,29
 443 388 443 388 476 355.5 c 128,-1,30
 509 323 509 323 522.5 285 c 128,-1,31
 536 247 536 247 536 208 c 128,-1,32
 536 169 536 169 521 131 c 128,-1,33
 506 93 506 93 477.5 59.5 c 128,-1,34
 449 26 449 26 400 5.5 c 128,-1,35
 351 -15 351 -15 289 -15 c 0,36,37
 149 -15 149 -15 85 70 c 1,0,-1
EndSplineSet
EndChar

StartChar: four
Encoding: 52 52 23
Width: 620
Flags: W
LayerCount: 2
Fore
SplineSet
172 223 m 1,0,-1
 370 223 l 1,1,-1
 370 564 l 1,2,-1
 172 223 l 1,0,-1
75 223 m 1,3,-1
 370 700 l 1,4,-1
 460 700 l 1,5,-1
 460 223 l 1,6,-1
 545 223 l 1,7,-1
 545 159 l 1,8,-1
 460 159 l 1,9,-1
 460 0 l 1,10,-1
 370 0 l 1,11,-1
 370 159 l 1,12,-1
 75 159 l 1,13,-1
 75 223 l 1,3,-1
EndSplineSet
EndChar

StartChar: five
Encoding: 53 53 24
Width: 620
Flags: W
LayerCount: 2
Fore
SplineSet
104 90 m 1,0,1
 186 62 186 62 262 62 c 0,2,3
 336 62 336 62 389.5 100 c 128,-1,4
 443 138 443 138 443 226 c 0,5,6
 443 307 443 307 391.5 357.5 c 128,-1,7
 340 408 340 408 232 408 c 2,8,-1
 110 408 l 1,9,-1
 110 700 l 1,10,-1
 476 700 l 1,11,-1
 476 634 l 1,12,-1
 206 634 l 1,13,-1
 206 484 l 1,14,-1
 234 484 l 1,15,16
 383 483 383 483 459.5 416 c 128,-1,17
 536 349 536 349 536 226 c 0,18,19
 536 113 536 113 462.5 49 c 128,-1,20
 389 -15 389 -15 254 -15 c 0,21,22
 182 -15 182 -15 128 -2 c 0,23,24
 104 4 104 4 84 12 c 1,25,-1
 104 90 l 1,0,1
EndSplineSet
EndChar

StartChar: six
Encoding: 54 54 25
Width: 620
Flags: W
LayerCount: 2
Fore
SplineSet
318 61 m 0,0,1
 385 61 385 61 424.5 106.5 c 128,-1,2
 464 152 464 152 464 234 c 0,3,4
 464 307 464 307 426 347.5 c 128,-1,5
 388 388 388 388 326 388 c 0,6,7
 269 388 269 388 218 350 c 128,-1,8
 167 312 167 312 167 233 c 0,9,10
 167 159 167 159 210.5 110 c 128,-1,11
 254 61 254 61 318 61 c 0,0,1
481 610 m 1,12,13
 392 639 392 639 344 639 c 0,14,15
 261 639 261 639 208 564.5 c 128,-1,16
 155 490 155 490 155 378 c 1,17,18
 175 418 175 418 220.5 443 c 128,-1,19
 266 468 266 468 330 468 c 0,20,21
 438 468 438 468 496 406.5 c 128,-1,22
 554 345 554 345 554 237 c 0,23,24
 554 114 554 114 484.5 49.5 c 128,-1,25
 415 -15 415 -15 312 -15 c 0,26,27
 196 -15 196 -15 131 76 c 128,-1,28
 66 167 66 167 66 339 c 0,29,30
 66 526 66 526 138 620.5 c 128,-1,31
 210 715 210 715 344 715 c 0,32,33
 430 715 430 715 510 680 c 1,34,-1
 481 610 l 1,12,13
EndSplineSet
EndChar

StartChar: seven
Encoding: 55 55 26
Width: 620
Flags: W
LayerCount: 2
Fore
SplineSet
500 700 m 1,0,-1
 250 0 l 1,1,-1
 160 0 l 1,2,-1
 386 634 l 1,3,-1
 120 634 l 1,4,-1
 120 700 l 1,5,-1
 500 700 l 1,0,-1
EndSplineSet
EndChar

StartChar: eight
Encoding: 56 56 27
Width: 620
Flags: W
LayerCount: 2
Fore
SplineSet
311 647 m 128,-1,1
 253 647 253 647 227 614 c 128,-1,2
 201 581 201 581 201 537 c 0,3,4
 201 492 201 492 229.5 462 c 128,-1,5
 258 432 258 432 311 432 c 128,-1,6
 364 432 364 432 392.5 462 c 128,-1,7
 421 492 421 492 421 537 c 0,8,9
 421 581 421 581 395 614 c 128,-1,0
 369 647 369 647 311 647 c 128,-1,1
311 359 m 128,-1,11
 237 359 237 359 198 316.5 c 128,-1,12
 159 274 159 274 159 198 c 0,13,14
 159 58 159 58 311 58 c 128,-1,15
 463 58 463 58 463 198 c 0,16,17
 463 274 463 274 424 316.5 c 128,-1,10
 385 359 385 359 311 359 c 128,-1,11
311 715 m 128,-1,19
 408 715 408 715 459.5 665 c 128,-1,20
 511 615 511 615 511 545 c 0,21,22
 511 497 511 497 483.5 452 c 128,-1,23
 456 407 456 407 410 396 c 1,24,25
 475 381 475 381 513.5 325 c 128,-1,26
 552 269 552 269 552 198 c 0,27,28
 552 112 552 112 493 48.5 c 128,-1,29
 434 -15 434 -15 311 -15 c 0,30,31
 247 -15 247 -15 198.5 4 c 128,-1,32
 150 23 150 23 123 54.5 c 128,-1,33
 96 86 96 86 82.5 122.5 c 128,-1,34
 69 159 69 159 69 198 c 0,35,36
 69 269 69 269 108 325 c 128,-1,37
 147 381 147 381 212 396 c 1,38,39
 165 407 165 407 138 452 c 128,-1,40
 111 497 111 497 111 545 c 0,41,42
 111 615 111 615 162.5 665 c 128,-1,18
 214 715 214 715 311 715 c 128,-1,19
EndSplineSet
EndChar

StartChar: nine
Encoding: 57 57 28
Width: 620
Flags: W
LayerCount: 2
Fore
SplineSet
302 639 m 0,0,1
 235 639 235 639 195.5 593.5 c 128,-1,2
 156 548 156 548 156 466 c 0,3,4
 156 393 156 393 194 352.5 c 128,-1,5
 232 312 232 312 294 312 c 0,6,7
 351 312 351 312 402 350 c 128,-1,8
 453 388 453 388 453 467 c 0,9,10
 453 541 453 541 409.5 590 c 128,-1,11
 366 639 366 639 302 639 c 0,0,1
139 90 m 1,12,13
 206 61 206 61 276 61 c 0,14,15
 359 61 359 61 412 135.5 c 128,-1,16
 465 210 465 210 465 322 c 1,17,18
 445 282 445 282 399.5 257 c 128,-1,19
 354 232 354 232 290 232 c 0,20,21
 182 232 182 232 124 293.5 c 128,-1,22
 66 355 66 355 66 463 c 0,23,24
 66 586 66 586 135.5 650.5 c 128,-1,25
 205 715 205 715 308 715 c 0,26,27
 424 715 424 715 489 624 c 128,-1,28
 554 533 554 533 554 361 c 0,29,30
 554 173 554 173 482 79 c 128,-1,31
 410 -15 410 -15 276 -15 c 0,32,33
 216 -15 216 -15 157 2 c 0,34,35
 130 10 130 10 110 20 c 1,36,-1
 139 90 l 1,12,13
EndSplineSet
EndChar

StartChar: colon
Encoding: 58 58 29
Width: 285
Flags: W
LayerCount: 2
Fore
SplineSet
93 440 m 1,0,-1
 193 440 l 1,1,-1
 193 333 l 1,2,-1
 93 333 l 1,3,-1
 93 440 l 1,0,-1
93 107 m 1,4,-1
 193 107 l 1,5,-1
 193 0 l 1,6,-1
 93 0 l 1,7,-1
 93 107 l 1,4,-1
EndSplineSet
EndChar

StartChar: semicolon
Encoding: 59 59 30
Width: 285
Flags: W
LayerCount: 2
Fore
SplineSet
107 107 m 1,0,-1
 207 107 l 1,1,-1
 147 -123 l 1,2,-1
 77 -123 l 1,3,-1
 107 107 l 1,0,-1
107 440 m 1,4,-1
 207 440 l 1,5,-1
 207 333 l 1,6,-1
 107 333 l 1,7,-1
 107 440 l 1,4,-1
EndSplineSet
EndChar

StartChar: less
Encoding: 60 60 31
Width: 515
Flags: W
LayerCount: 2
Fore
SplineSet
477 504 m 1,0,-1
 74 340 l 1,1,-1
 477 178 l 1,2,-1
 477 88 l 1,3,-1
 4 281 l 1,4,-1
 4 399 l 1,5,-1
 477 594 l 1,6,-1
 477 504 l 1,0,-1
EndSplineSet
EndChar

StartChar: equal
Encoding: 61 61 32
Width: 538
Flags: W
LayerCount: 2
Fore
SplineSet
39 392 m 1,0,-1
 39 482 l 1,1,-1
 499 482 l 1,2,-1
 499 392 l 1,3,-1
 39 392 l 1,0,-1
39 178 m 1,4,-1
 39 268 l 1,5,-1
 499 268 l 1,6,-1
 499 178 l 1,7,-1
 39 178 l 1,4,-1
EndSplineSet
EndChar

StartChar: greater
Encoding: 62 62 33
Width: 516
Flags: W
LayerCount: 2
Fore
SplineSet
442 340 m 1,0,-1
 39 504 l 1,1,-1
 39 594 l 1,2,-1
 512 399 l 1,3,-1
 512 281 l 1,4,-1
 39 88 l 1,5,-1
 39 178 l 1,6,-1
 442 340 l 1,0,-1
EndSplineSet
EndChar

StartChar: question
Encoding: 63 63 34
Width: 480
Flags: W
LayerCount: 2
Fore
SplineSet
267 90 m 1,0,-1
 267 0 l 1,1,-1
 177 0 l 1,2,-1
 177 90 l 1,3,-1
 267 90 l 1,0,-1
267 168 m 1,4,-1
 177 168 l 1,5,6
 177 204 177 204 193 238.5 c 128,-1,7
 209 273 209 273 225.5 292.5 c 128,-1,8
 242 312 242 312 277 349 c 0,9,10
 303 377 303 377 316 393 c 128,-1,11
 329 409 329 409 343.5 442.5 c 128,-1,12
 358 476 358 476 358 512 c 0,13,14
 358 559 358 559 324.5 600.5 c 128,-1,15
 291 642 291 642 226 642 c 0,16,17
 143 642 143 642 84 599 c 1,18,-1
 32 659 l 1,19,20
 109 715 109 715 226 715 c 0,21,22
 283 715 283 715 328 695 c 128,-1,23
 373 675 373 675 398 643 c 128,-1,24
 423 611 423 611 435.5 577.5 c 128,-1,25
 448 544 448 544 448 512 c 0,26,27
 448 461 448 461 429.5 417.5 c 128,-1,28
 411 374 411 374 384.5 344 c 128,-1,29
 358 314 358 314 331 287 c 128,-1,30
 304 260 304 260 285.5 230 c 128,-1,31
 267 200 267 200 267 168 c 1,4,-1
EndSplineSet
EndChar

StartChar: at
Encoding: 64 64 35
Width: 793
Flags: W
LayerCount: 2
Fore
SplineSet
485 359 m 1,0,1
 456 376 456 376 416 376 c 0,2,3
 342 376 342 376 301 329 c 128,-1,4
 260 282 260 282 260 219 c 0,5,6
 260 163 260 163 292 120.5 c 128,-1,7
 324 78 324 78 376 78 c 0,8,9
 440 78 440 78 485 124 c 1,10,-1
 485 359 l 1,0,1
392 -57 m 0,11,12
 451 -57 451 -57 492 -43 c 1,13,-1
 506 -116 l 1,14,15
 497 -119 497 -119 477 -123 c 0,16,17
 444 -130 444 -130 392 -130 c 0,18,19
 242 -130 242 -130 134.5 -22.5 c 128,-1,20
 27 85 27 85 27 235 c 0,21,22
 27 384 27 384 139 492 c 128,-1,23
 251 600 251 600 402 600 c 0,24,25
 552 600 552 600 659.5 492.5 c 128,-1,26
 767 385 767 385 767 235 c 0,27,28
 767 111 767 111 721 38 c 128,-1,29
 675 -35 675 -35 608 -35 c 0,30,31
 524 -35 524 -35 495 78 c 1,32,33
 485 62 485 62 466 47 c 0,34,35
 426 17 426 17 371 17 c 0,36,37
 291 17 291 17 242.5 78.5 c 128,-1,38
 194 140 194 140 194 221 c 0,39,40
 194 308 194 308 251.5 373 c 128,-1,41
 309 438 309 438 413 438 c 0,42,43
 471 438 471 438 519 415 c 0,44,45
 538 405 538 405 554 392 c 1,46,-1
 554 166 l 2,47,48
 554 103 554 103 569.5 70.5 c 128,-1,49
 585 38 585 38 608 38 c 0,50,51
 647 38 647 38 662 84 c 128,-1,52
 677 130 677 130 677 235 c 0,53,54
 677 356 677 356 596.5 441.5 c 128,-1,55
 516 527 516 527 402 527 c 128,-1,56
 288 527 288 527 202.5 441 c 128,-1,57
 117 355 117 355 117 235 c 0,58,59
 117 114 117 114 197.5 28.5 c 128,-1,60
 278 -57 278 -57 392 -57 c 0,11,12
EndSplineSet
EndChar

StartChar: A
Encoding: 65 65 36
Width: 751
Flags: W
LayerCount: 2
Fore
SplineSet
374 608 m 1,0,-1
 254 300 l 1,1,-1
 496 300 l 1,2,-1
 374 608 l 1,0,-1
329 700 m 1,3,-1
 419 700 l 1,4,-1
 711 0 l 1,5,-1
 621 0 l 1,6,-1
 523 234 l 1,7,-1
 226 234 l 1,8,-1
 130 0 l 1,9,-1
 40 0 l 1,10,-1
 329 700 l 1,3,-1
EndSplineSet
EndChar

StartChar: B
Encoding: 66 66 37
Width: 635
Flags: W
LayerCount: 2
Fore
SplineSet
176 633 m 1,0,-1
 176 426 l 1,1,-1
 309 426 l 2,2,3
 392 426 392 426 423.5 448.5 c 128,-1,4
 455 471 455 471 455 525 c 0,5,6
 455 581 455 581 423 607.5 c 128,-1,7
 391 634 391 634 309 634 c 1,8,9
 294 633 294 633 262 633 c 2,10,-1
 176 633 l 1,0,-1
325 359 m 1,11,-1
 176 359 l 1,12,-1
 176 66 l 1,13,-1
 316 66 l 2,14,15
 502 66 502 66 502 221 c 0,16,17
 502 292 502 292 459 324.5 c 128,-1,18
 416 357 416 357 325 359 c 1,11,-1
86 700 m 1,19,-1
 326 700 l 2,20,21
 388 700 388 700 433.5 683 c 128,-1,22
 479 666 479 666 502 638 c 128,-1,23
 525 610 525 610 535 582 c 128,-1,24
 545 554 545 554 545 525 c 0,25,26
 545 443 545 443 479 398 c 1,27,28
 592 345 592 345 592 221 c 0,29,30
 592 124 592 124 523.5 62 c 128,-1,31
 455 0 455 0 333 0 c 2,32,-1
 86 0 l 1,33,-1
 86 700 l 1,19,-1
EndSplineSet
EndChar

StartChar: C
Encoding: 67 67 38
Width: 690
Flags: W
LayerCount: 2
Fore
SplineSet
150 350 m 128,-1,1
 150 231 150 231 230.5 146 c 128,-1,2
 311 61 311 61 425 61 c 0,3,4
 515 61 515 61 589 118 c 1,5,-1
 647 60 l 1,6,7
 546 -15 546 -15 425 -15 c 0,8,9
 275 -15 275 -15 167.5 92.5 c 128,-1,10
 60 200 60 200 60 350 c 128,-1,11
 60 500 60 500 167.5 607.5 c 128,-1,12
 275 715 275 715 425 715 c 0,13,14
 547 715 547 715 647 639 c 1,15,-1
 589 581 l 1,16,17
 513 639 513 639 425 639 c 0,18,19
 311 639 311 639 230.5 554 c 128,-1,0
 150 469 150 469 150 350 c 128,-1,1
EndSplineSet
EndChar

StartChar: D
Encoding: 68 68 39
Width: 716
Flags: W
LayerCount: 2
Fore
SplineSet
261 634 m 2,0,-1
 176 634 l 1,1,-1
 176 66 l 1,2,-1
 261 66 l 2,3,4
 334 66 334 66 390 85 c 128,-1,5
 446 104 446 104 478.5 133 c 128,-1,6
 511 162 511 162 531.5 201.5 c 128,-1,7
 552 241 552 241 559 276.5 c 128,-1,8
 566 312 566 312 566 350 c 128,-1,9
 566 388 566 388 559 423.5 c 128,-1,10
 552 459 552 459 531.5 498.5 c 128,-1,11
 511 538 511 538 478.5 567 c 128,-1,12
 446 596 446 596 390 615 c 128,-1,13
 334 634 334 634 261 634 c 2,0,-1
86 700 m 1,14,-1
 301 700 l 2,15,16
 459 700 459 700 557.5 598 c 128,-1,17
 656 496 656 496 656 350 c 128,-1,18
 656 204 656 204 557.5 102 c 128,-1,19
 459 0 459 0 301 0 c 2,20,-1
 86 0 l 1,21,-1
 86 700 l 1,14,-1
EndSplineSet
EndChar

StartChar: E
Encoding: 69 69 40
Width: 575
Flags: W
LayerCount: 2
Fore
SplineSet
532 64 m 1,0,-1
 532 0 l 1,1,-1
 86 0 l 1,2,-1
 86 700 l 1,3,-1
 532 700 l 1,4,-1
 532 636 l 1,5,-1
 176 636 l 1,6,-1
 176 414 l 1,7,-1
 472 414 l 1,8,-1
 472 350 l 1,9,-1
 176 350 l 1,10,-1
 176 64 l 1,11,-1
 532 64 l 1,0,-1
EndSplineSet
EndChar

StartChar: F
Encoding: 70 70 41
Width: 530
Flags: W
LayerCount: 2
Fore
SplineSet
445 414 m 1,0,-1
 445 350 l 1,1,-1
 176 350 l 1,2,-1
 176 0 l 1,3,-1
 86 0 l 1,4,-1
 86 700 l 1,5,-1
 487 700 l 1,6,-1
 487 636 l 1,7,-1
 176 636 l 1,8,-1
 176 414 l 1,9,-1
 445 414 l 1,0,-1
EndSplineSet
EndChar

StartChar: G
Encoding: 71 71 42
Width: 727
Flags: W
LayerCount: 2
Fore
SplineSet
463 364 m 1,0,-1
 687 364 l 1,1,-1
 687 96 l 1,2,3
 656 65 656 65 627 46 c 0,4,5
 535 -15 535 -15 425 -15 c 0,6,7
 275 -15 275 -15 167.5 92.5 c 128,-1,8
 60 200 60 200 60 350 c 128,-1,9
 60 500 60 500 167.5 607.5 c 128,-1,10
 275 715 275 715 425 715 c 0,11,12
 547 715 547 715 647 639 c 1,13,-1
 589 581 l 1,14,15
 513 639 513 639 425 639 c 0,16,17
 311 639 311 639 230.5 554 c 128,-1,18
 150 469 150 469 150 350 c 128,-1,19
 150 231 150 231 230.5 146 c 128,-1,20
 311 61 311 61 425 61 c 0,21,22
 522 61 522 61 597 125 c 1,23,-1
 597 300 l 1,24,-1
 463 300 l 1,25,-1
 463 364 l 1,0,-1
EndSplineSet
EndChar

StartChar: H
Encoding: 72 72 43
Width: 702
Flags: W
LayerCount: 2
Fore
SplineSet
526 700 m 1,0,-1
 616 700 l 1,1,-1
 616 0 l 1,2,-1
 526 0 l 1,3,-1
 526 317 l 1,4,-1
 176 317 l 1,5,-1
 176 0 l 1,6,-1
 86 0 l 1,7,-1
 86 700 l 1,8,-1
 176 700 l 1,9,-1
 176 383 l 1,10,-1
 526 383 l 1,11,-1
 526 700 l 1,0,-1
EndSplineSet
EndChar

StartChar: I
Encoding: 73 73 44
Width: 262
Flags: W
LayerCount: 2
Fore
SplineSet
176 700 m 1,0,-1
 176 0 l 1,1,-1
 86 0 l 1,2,-1
 86 700 l 1,3,-1
 176 700 l 1,0,-1
EndSplineSet
EndChar

StartChar: J
Encoding: 74 74 45
Width: 343
Flags: W
LayerCount: 2
Fore
SplineSet
167 700 m 1,0,-1
 257 700 l 1,1,-1
 257 328 l 2,2,3
 257 269 257 269 256 230.5 c 128,-1,4
 255 192 255 192 251 154 c 128,-1,5
 247 116 247 116 240.5 93 c 128,-1,6
 234 70 234 70 222.5 49 c 128,-1,7
 211 28 211 28 196 17 c 128,-1,8
 181 6 181 6 157.5 -2.5 c 128,-1,9
 134 -11 134 -11 106.5 -14 c 128,-1,10
 79 -17 79 -17 40 -18 c 1,11,-1
 40 52 l 1,12,13
 116 54 116 54 141.5 92.5 c 128,-1,14
 167 131 167 131 167 234 c 2,15,-1
 167 700 l 1,0,-1
EndSplineSet
EndChar

StartChar: K
Encoding: 75 75 46
Width: 662
Flags: W
LayerCount: 2
Fore
SplineSet
176 0 m 1,0,-1
 86 0 l 1,1,-1
 86 700 l 1,2,-1
 176 700 l 1,3,-1
 176 334 l 1,4,-1
 496 700 l 1,5,-1
 596 700 l 1,6,-1
 324 392 l 1,7,-1
 622 0 l 1,8,-1
 516 0 l 1,9,-1
 267 325 l 1,10,-1
 176 221 l 1,11,-1
 176 0 l 1,0,-1
EndSplineSet
EndChar

StartChar: L
Encoding: 76 76 47
Width: 555
Flags: W
LayerCount: 2
Fore
SplineSet
176 700 m 1,0,-1
 176 66 l 1,1,-1
 515 66 l 1,2,-1
 515 0 l 1,3,-1
 86 0 l 1,4,-1
 86 700 l 1,5,-1
 176 700 l 1,0,-1
EndSplineSet
EndChar

StartChar: M
Encoding: 77 77 48
Width: 772
Flags: W
LayerCount: 2
Fore
SplineSet
346 308 m 1,0,-1
 166 559 l 1,1,-1
 166 0 l 1,2,-1
 76 0 l 1,3,-1
 76 700 l 1,4,-1
 166 700 l 1,5,-1
 381 391 l 1,6,-1
 596 700 l 1,7,-1
 686 700 l 1,8,-1
 686 0 l 1,9,-1
 596 0 l 1,10,-1
 596 560 l 1,11,-1
 415 308 l 1,12,-1
 346 308 l 1,0,-1
EndSplineSet
EndChar

StartChar: N
Encoding: 78 78 49
Width: 683
Flags: W
LayerCount: 2
Fore
SplineSet
607 700 m 1,0,-1
 607 0 l 1,1,-1
 517 0 l 1,2,-1
 166 551 l 1,3,-1
 166 0 l 1,4,-1
 76 0 l 1,5,-1
 76 700 l 1,6,-1
 166 700 l 1,7,-1
 517 150 l 1,8,-1
 517 700 l 1,9,-1
 607 700 l 1,0,-1
EndSplineSet
EndChar

StartChar: O
Encoding: 79 79 50
Width: 850
Flags: W
LayerCount: 2
Fore
SplineSet
150 350 m 128,-1,1
 150 229 150 229 226 145 c 128,-1,2
 302 61 302 61 420 61 c 128,-1,3
 538 61 538 61 619 145.5 c 128,-1,4
 700 230 700 230 700 350 c 128,-1,5
 700 470 700 470 619 554.5 c 128,-1,6
 538 639 538 639 420 639 c 128,-1,7
 302 639 302 639 226 555 c 128,-1,0
 150 471 150 471 150 350 c 128,-1,1
60 350 m 128,-1,9
 60 502 60 502 162 608.5 c 128,-1,10
 264 715 264 715 420 715 c 128,-1,11
 576 715 576 715 683 608 c 128,-1,12
 790 501 790 501 790 350 c 128,-1,13
 790 199 790 199 683 92 c 128,-1,14
 576 -15 576 -15 420 -15 c 128,-1,15
 264 -15 264 -15 162 91.5 c 128,-1,8
 60 198 60 198 60 350 c 128,-1,9
EndSplineSet
EndChar

StartChar: P
Encoding: 80 80 51
Width: 630
Flags: W
LayerCount: 2
Fore
SplineSet
176 301 m 1,0,-1
 328 301 l 2,1,2
 391 301 391 301 435.5 349.5 c 128,-1,3
 480 398 480 398 480 467 c 128,-1,4
 480 536 480 536 435.5 585 c 128,-1,5
 391 634 391 634 328 634 c 2,6,-1
 176 634 l 1,7,-1
 176 301 l 1,0,-1
328 235 m 2,8,-1
 176 235 l 1,9,-1
 176 0 l 1,10,-1
 86 0 l 1,11,-1
 86 700 l 1,12,-1
 328 700 l 2,13,14
 428 700 428 700 499 631.5 c 128,-1,15
 570 563 570 563 570 467 c 128,-1,16
 570 371 570 371 499 303 c 128,-1,17
 428 235 428 235 328 235 c 2,8,-1
EndSplineSet
EndChar

StartChar: Q
Encoding: 81 81 52
Width: 800
Flags: W
LayerCount: 2
Fore
SplineSet
150 350 m 128,-1,1
 150 230 150 230 223 145.5 c 128,-1,2
 296 61 296 61 400 61 c 128,-1,3
 504 61 504 61 577 145.5 c 128,-1,4
 650 230 650 230 650 350 c 128,-1,5
 650 470 650 470 577 554.5 c 128,-1,6
 504 639 504 639 400 639 c 128,-1,7
 296 639 296 639 223 554.5 c 128,-1,0
 150 470 150 470 150 350 c 128,-1,1
679 -59 m 1,8,-1
 679 -135 l 1,9,-1
 299 0 l 1,10,11
 193 39 193 39 126.5 133.5 c 128,-1,12
 60 228 60 228 60 350 c 0,13,14
 60 500 60 500 159.5 607.5 c 128,-1,15
 259 715 259 715 400 715 c 128,-1,16
 541 715 541 715 640.5 607.5 c 128,-1,17
 740 500 740 500 740 350 c 0,18,19
 740 221 740 221 665 121.5 c 128,-1,20
 590 22 590 22 475 -6 c 1,21,-1
 679 -59 l 1,8,-1
EndSplineSet
EndChar

StartChar: R
Encoding: 82 82 53
Width: 600
Flags: W
LayerCount: 2
Fore
SplineSet
176 321 m 1,0,-1
 308 321 l 2,1,2
 372 321 372 321 416 365 c 128,-1,3
 460 409 460 409 460 477 c 128,-1,4
 460 545 460 545 416 589.5 c 128,-1,5
 372 634 372 634 308 634 c 2,6,-1
 176 634 l 1,7,-1
 176 321 l 1,0,-1
322 255 m 1,8,-1
 176 255 l 1,9,-1
 176 0 l 1,10,-1
 86 0 l 1,11,-1
 86 700 l 1,12,-1
 308 700 l 2,13,14
 409 700 409 700 479.5 636.5 c 128,-1,15
 550 573 550 573 550 477 c 0,16,17
 550 405 550 405 509.5 350 c 128,-1,18
 469 295 469 295 402 271 c 1,19,-1
 560 0 l 1,20,-1
 470 0 l 1,21,-1
 322 255 l 1,8,-1
EndSplineSet
EndChar

StartChar: S
Encoding: 83 83 54
Width: 538
Flags: W
LayerCount: 2
Fore
SplineSet
423 579 m 1,0,1
 348 639 348 639 274 639 c 0,2,3
 223 639 223 639 183.5 613 c 128,-1,4
 144 587 144 587 144 540 c 0,5,6
 144 521 144 521 151.5 505 c 128,-1,7
 159 489 159 489 177.5 474.5 c 128,-1,8
 196 460 196 460 206 452.5 c 128,-1,9
 216 445 216 445 243.5 431 c 128,-1,10
 271 417 271 417 274 415 c 0,11,12
 287 408 287 408 320.5 389.5 c 128,-1,13
 354 371 354 371 366 363 c 128,-1,14
 378 355 378 355 403 338.5 c 128,-1,15
 428 322 428 322 438 308.5 c 128,-1,16
 448 295 448 295 461 275.5 c 128,-1,17
 474 256 474 256 479 233 c 128,-1,18
 484 210 484 210 484 182 c 0,19,20
 484 98 484 98 414 41.5 c 128,-1,21
 344 -15 344 -15 254 -15 c 0,22,23
 179 -15 179 -15 109 27 c 0,24,25
 78 45 78 45 54 70 c 1,26,-1
 89 145 l 1,27,28
 117 120 117 120 144 103 c 0,29,30
 208 61 208 61 254 61 c 0,31,32
 312 61 312 61 353 95 c 128,-1,33
 394 129 394 129 394 182 c 0,34,35
 394 229 394 229 359 266 c 128,-1,36
 324 303 324 303 274 328.5 c 128,-1,37
 224 354 224 354 174 381 c 128,-1,38
 124 408 124 408 89 448 c 128,-1,39
 54 488 54 488 54 540 c 0,40,41
 54 617 54 617 120.5 666 c 128,-1,42
 187 715 187 715 274 715 c 0,43,44
 341 715 341 715 407 684 c 0,45,46
 429 674 429 674 457 653 c 1,47,-1
 423 579 l 1,0,1
EndSplineSet
EndChar

StartChar: T
Encoding: 84 84 55
Width: 530
Flags: W
LayerCount: 2
Fore
SplineSet
10 700 m 1,0,-1
 520 700 l 1,1,-1
 520 634 l 1,2,-1
 310 634 l 1,3,-1
 310 0 l 1,4,-1
 220 0 l 1,5,-1
 220 634 l 1,6,-1
 10 634 l 1,7,-1
 10 700 l 1,0,-1
EndSplineSet
EndChar

StartChar: U
Encoding: 85 85 56
Width: 742
Flags: W
LayerCount: 2
Fore
SplineSet
376 -15 m 0,0,1
 342 -15 342 -15 306 -8.5 c 128,-1,2
 270 -2 270 -2 229.5 17 c 128,-1,3
 189 36 189 36 158 65.5 c 128,-1,4
 127 95 127 95 106.5 145.5 c 128,-1,5
 86 196 86 196 86 260 c 2,6,-1
 86 700 l 1,7,-1
 176 700 l 1,8,-1
 176 240 l 2,9,10
 176 196 176 196 196 161.5 c 128,-1,11
 216 127 216 127 247.5 107.5 c 128,-1,12
 279 88 279 88 312 78 c 128,-1,13
 345 68 345 68 376 68 c 128,-1,14
 407 68 407 68 440 78 c 128,-1,15
 473 88 473 88 504.5 107.5 c 128,-1,16
 536 127 536 127 556 161.5 c 128,-1,17
 576 196 576 196 576 240 c 2,18,-1
 576 700 l 1,19,-1
 666 700 l 1,20,-1
 666 260 l 2,21,22
 666 195 666 195 645.5 144.5 c 128,-1,23
 625 94 625 94 594 65 c 128,-1,24
 563 36 563 36 522 17 c 128,-1,25
 481 -2 481 -2 446 -8.5 c 128,-1,26
 411 -15 411 -15 376 -15 c 0,0,1
EndSplineSet
EndChar

StartChar: V
Encoding: 86 86 57
Width: 664
Flags: W
LayerCount: 2
Fore
SplineSet
624 700 m 1,0,-1
 377 0 l 1,1,-1
 287 0 l 1,2,-1
 40 700 l 1,3,-1
 129 700 l 1,4,-1
 332 117 l 1,5,-1
 534 700 l 1,6,-1
 624 700 l 1,0,-1
EndSplineSet
EndChar

StartChar: W
Encoding: 87 87 58
Width: 982
Flags: W
LayerCount: 2
Fore
SplineSet
942 700 m 1,0,-1
 742 0 l 1,1,-1
 652 0 l 1,2,-1
 498 566 l 1,3,-1
 329 0 l 1,4,-1
 239 0 l 1,5,-1
 40 700 l 1,6,-1
 130 700 l 1,7,-1
 284 133 l 1,8,-1
 453 700 l 1,9,-1
 542 700 l 1,10,-1
 697 133 l 1,11,-1
 852 700 l 1,12,-1
 942 700 l 1,0,-1
EndSplineSet
EndChar

StartChar: X
Encoding: 88 88 59
Width: 657
Flags: W
LayerCount: 2
Fore
SplineSet
508 700 m 1,0,-1
 617 700 l 1,1,-1
 383 349 l 1,2,3
 616 2 616 2 617 0 c 1,4,-1
 507 0 l 1,5,-1
 328 267 l 1,6,-1
 150 0 l 1,7,-1
 40 0 l 1,8,-1
 274 349 l 1,9,-1
 40 700 l 1,10,-1
 149 700 l 1,11,-1
 328 430 l 1,12,-1
 508 700 l 1,0,-1
EndSplineSet
EndChar

StartChar: Y
Encoding: 89 89 60
Width: 631
Flags: W
LayerCount: 2
Fore
SplineSet
311 400 m 1,0,-1
 501 700 l 1,1,-1
 591 700 l 1,2,-1
 352 321 l 1,3,-1
 352 0 l 1,4,-1
 268 0 l 1,5,-1
 268 321 l 1,6,-1
 40 700 l 1,7,-1
 130 700 l 1,8,-1
 311 400 l 1,0,-1
EndSplineSet
EndChar

StartChar: Z
Encoding: 90 90 61
Width: 595
Flags: W
LayerCount: 2
Fore
SplineSet
43 66 m 1,0,-1
 442 634 l 1,1,-1
 43 634 l 1,2,-1
 43 700 l 1,3,-1
 552 700 l 1,4,-1
 552 634 l 1,5,-1
 153 66 l 1,6,-1
 552 66 l 1,7,-1
 552 0 l 1,8,-1
 43 0 l 1,9,-1
 43 66 l 1,0,-1
EndSplineSet
EndChar

StartChar: bracketleft
Encoding: 91 91 62
Width: 318
Flags: W
LayerCount: 2
Fore
SplineSet
303 -110 m 1,0,-1
 303 -200 l 1,1,-1
 39 -200 l 1,2,-1
 39 700 l 1,3,-1
 303 700 l 1,4,-1
 303 610 l 1,5,-1
 129 610 l 1,6,-1
 129 -110 l 1,7,-1
 303 -110 l 1,0,-1
EndSplineSet
EndChar

StartChar: backslash
Encoding: 92 92 63
Width: 279
Flags: W
LayerCount: 2
Fore
SplineSet
7 700 m 1,0,-1
 97 700 l 1,1,-1
 272 0 l 1,2,-1
 182 0 l 1,3,-1
 7 700 l 1,0,-1
EndSplineSet
EndChar

StartChar: bracketright
Encoding: 93 93 64
Width: 318
Flags: W
LayerCount: 2
Fore
SplineSet
16 -200 m 1,0,-1
 16 -110 l 1,1,-1
 190 -110 l 1,2,-1
 190 610 l 1,3,-1
 16 610 l 1,4,-1
 16 700 l 1,5,-1
 280 700 l 1,6,-1
 280 -200 l 1,7,-1
 16 -200 l 1,0,-1
EndSplineSet
EndChar

StartChar: underscore
Encoding: 95 95 65
Width: 650
Flags: W
LayerCount: 2
Fore
SplineSet
39 -192 m 1,0,-1
 39 -102 l 1,1,-1
 611 -102 l 1,2,-1
 611 -192 l 1,3,-1
 39 -192 l 1,0,-1
EndSplineSet
EndChar

StartChar: grave
Encoding: 96 96 66
Width: 298
Flags: W
LayerCount: 2
Fore
SplineSet
157 617 m 1,0,-1
 39 750 l 1,1,-1
 149 750 l 1,2,-1
 247 617 l 1,3,-1
 157 617 l 1,0,-1
EndSplineSet
EndChar

StartChar: a
Encoding: 97 97 67
Width: 537
Flags: W
LayerCount: 2
Fore
SplineSet
229 57 m 0,0,1
 262 57 262 57 303 71.5 c 128,-1,2
 344 86 344 86 372 105 c 1,3,-1
 373 105 l 1,4,-1
 373 248 l 1,5,-1
 240 248 l 2,6,7
 141 248 141 248 141 158 c 0,8,9
 141 119 141 119 161.5 88 c 128,-1,10
 182 57 182 57 229 57 c 0,0,1
111 500 m 1,11,12
 306 515 306 515 322 515 c 0,13,14
 393 515 393 515 426 475 c 128,-1,15
 459 435 459 435 459 383 c 2,16,-1
 459 0 l 1,17,-1
 396 0 l 1,18,-1
 382 49 l 1,19,-1
 379 49 l 1,20,21
 292 -10 292 -10 212 -10 c 0,22,23
 136 -10 136 -10 95 41.5 c 128,-1,24
 54 93 54 93 54 158 c 0,25,26
 54 225 54 225 103 270 c 128,-1,27
 152 315 152 315 240 315 c 2,28,-1
 373 315 l 1,29,-1
 373 353 l 2,30,31
 373 399 373 399 355 418.5 c 128,-1,32
 337 438 337 438 288 438 c 0,33,34
 252 438 252 438 178 430 c 2,35,-1
 111 422 l 1,36,-1
 111 500 l 1,11,12
EndSplineSet
EndChar

StartChar: b
Encoding: 98 98 68
Width: 562
Flags: W
LayerCount: 2
Fore
SplineSet
298 438 m 0,0,1
 213 438 213 438 153 414 c 1,2,-1
 153 77 l 1,3,-1
 224 77 l 2,4,5
 330 77 330 77 376.5 123 c 128,-1,6
 423 169 423 169 423 271 c 0,7,8
 423 338 423 338 392.5 388 c 128,-1,9
 362 438 362 438 298 438 c 0,0,1
224 0 m 2,10,-1
 70 0 l 1,11,-1
 70 750 l 1,12,-1
 153 750 l 1,13,-1
 153 488 l 1,14,15
 230 515 230 515 299 515 c 0,16,17
 354 515 354 515 396 493 c 128,-1,18
 438 471 438 471 461.5 434.5 c 128,-1,19
 485 398 485 398 496.5 355.5 c 128,-1,20
 508 313 508 313 508 268 c 0,21,22
 508 136 508 136 439.5 68 c 128,-1,23
 371 0 371 0 224 0 c 2,10,-1
EndSplineSet
EndChar

StartChar: c
Encoding: 99 99 69
Width: 502
Flags: W
LayerCount: 2
Fore
SplineSet
136 250 m 128,-1,1
 136 172 136 172 188.5 116.5 c 128,-1,2
 241 61 241 61 317 61 c 0,3,4
 384 61 384 61 452 76 c 1,5,-1
 452 0 l 1,6,7
 384 -15 384 -15 317 -15 c 0,8,9
 208 -15 208 -15 131 62.5 c 128,-1,10
 54 140 54 140 54 250 c 128,-1,11
 54 360 54 360 131 437.5 c 128,-1,12
 208 515 208 515 317 515 c 0,13,14
 384 515 384 515 452 500 c 1,15,-1
 452 424 l 1,16,17
 384 439 384 439 317 439 c 0,18,19
 241 439 241 439 188.5 383.5 c 128,-1,0
 136 328 136 328 136 250 c 128,-1,1
EndSplineSet
EndChar

StartChar: d
Encoding: 100 100 70
Width: 563
Flags: W
LayerCount: 2
Fore
SplineSet
289 62 m 0,0,1
 352 62 352 62 408 100 c 1,2,-1
 408 405 l 1,3,4
 344 443 344 443 274 443 c 0,5,6
 213 443 213 443 176 398.5 c 128,-1,7
 139 354 139 354 139 275 c 0,8,9
 139 188 139 188 181 125 c 128,-1,10
 223 62 223 62 289 62 c 0,0,1
267 515 m 0,11,12
 339 515 339 515 408 476 c 1,13,-1
 408 750 l 1,14,-1
 493 750 l 1,15,-1
 493 0 l 1,16,-1
 433 0 l 1,17,-1
 421 37 l 1,18,19
 354 -15 354 -15 276 -15 c 0,20,21
 183 -15 183 -15 118.5 68 c 128,-1,22
 54 151 54 151 54 267 c 0,23,24
 54 333 54 333 76 387.5 c 128,-1,25
 98 442 98 442 148 478.5 c 128,-1,26
 198 515 198 515 267 515 c 0,11,12
EndSplineSet
EndChar

StartChar: e
Encoding: 101 101 71
Width: 547
Flags: W
LayerCount: 2
Fore
SplineSet
140 286 m 1,0,-1
 410 286 l 1,1,2
 403 353 403 353 373 396 c 128,-1,3
 343 439 343 439 285 439 c 0,4,5
 228 439 228 439 188 397 c 128,-1,6
 148 355 148 355 140 286 c 1,0,-1
54 252 m 0,7,8
 54 372 54 372 118 443.5 c 128,-1,9
 182 515 182 515 287 515 c 0,10,11
 496 515 496 515 496 220 c 1,12,-1
 137 220 l 1,13,14
 142 158 142 158 182.5 109.5 c 128,-1,15
 223 61 223 61 306 61 c 0,16,17
 402 61 402 61 471 93 c 1,18,-1
 471 14 l 1,19,20
 396 -15 396 -15 317 -15 c 0,21,22
 248 -15 248 -15 196.5 6.5 c 128,-1,23
 145 28 145 28 114.5 65.5 c 128,-1,24
 84 103 84 103 69 150 c 128,-1,25
 54 197 54 197 54 252 c 0,7,8
EndSplineSet
EndChar

StartChar: f
Encoding: 102 102 72
Width: 426
Flags: W
LayerCount: 2
Fore
SplineSet
217 0 m 1,0,-1
 132 0 l 1,1,-1
 132 423 l 1,2,-1
 54 423 l 1,3,-1
 54 500 l 1,4,-1
 132 500 l 1,5,-1
 132 619 l 2,6,7
 132 678 132 678 168 714 c 128,-1,8
 204 750 204 750 257 750 c 2,9,-1
 380 750 l 1,10,-1
 380 673 l 1,11,-1
 302 673 l 2,12,13
 250 673 250 673 233.5 652 c 128,-1,14
 217 631 217 631 217 574 c 2,15,-1
 217 500 l 1,16,-1
 349 500 l 1,17,-1
 349 423 l 1,18,-1
 217 423 l 1,19,-1
 217 0 l 1,0,-1
EndSplineSet
EndChar

StartChar: g
Encoding: 103 103 73
Width: 579
Flags: W
LayerCount: 2
Fore
SplineSet
87 -192 m 1,0,-1
 130 -127 l 1,1,2
 218 -174 218 -174 302 -174 c 0,3,4
 417 -174 417 -174 417 -70 c 2,5,-1
 417 19 l 1,6,7
 354 -15 354 -15 296 -15 c 0,8,9
 188 -15 188 -15 129 61 c 128,-1,10
 70 137 70 137 70 248 c 0,11,12
 70 317 70 317 92 376 c 128,-1,13
 114 435 114 435 163.5 475 c 128,-1,14
 213 515 213 515 282 515 c 0,15,16
 343 515 343 515 433 471 c 1,17,-1
 447 500 l 1,18,-1
 501 500 l 1,19,-1
 501 -70 l 2,20,21
 501 -155 501 -155 451 -202.5 c 128,-1,22
 401 -250 401 -250 302 -250 c 0,23,24
 196 -250 196 -250 87 -192 c 1,0,-1
308 57 m 0,25,26
 372 57 372 57 417 82 c 1,27,-1
 417 415 l 1,28,29
 347 447 347 447 294 447 c 0,30,31
 230 447 230 447 191.5 396.5 c 128,-1,32
 153 346 153 346 153 254 c 0,33,34
 153 216 153 216 160.5 183.5 c 128,-1,35
 168 151 168 151 184.5 121 c 128,-1,36
 201 91 201 91 232.5 74 c 128,-1,37
 264 57 264 57 308 57 c 0,25,26
EndSplineSet
EndChar

StartChar: h
Encoding: 104 104 74
Width: 573
Flags: W
LayerCount: 2
Fore
SplineSet
74 750 m 1,0,-1
 157 750 l 1,1,-1
 157 465 l 1,2,3
 240 515 240 515 319 515 c 0,4,5
 395 515 395 515 445 471.5 c 128,-1,6
 495 428 495 428 495 354 c 2,7,-1
 495 0 l 1,8,-1
 410 0 l 1,9,-1
 410 354 l 2,10,11
 410 436 410 436 309 436 c 0,12,13
 238 436 238 436 157 382 c 1,14,-1
 157 0 l 1,15,-1
 74 0 l 1,16,-1
 74 750 l 1,0,-1
EndSplineSet
EndChar

StartChar: i
Encoding: 105 105 75
Width: 251
Flags: W
LayerCount: 2
Fore
SplineSet
80 623 m 1,0,-1
 80 700 l 1,1,-1
 165 700 l 1,2,-1
 165 623 l 1,3,-1
 80 623 l 1,0,-1
80 500 m 1,4,-1
 165 500 l 1,5,-1
 165 0 l 1,6,-1
 80 0 l 1,7,-1
 80 500 l 1,4,-1
EndSplineSet
EndChar

StartChar: j
Encoding: 106 106 76
Width: 284
Flags: W
LayerCount: 2
Fore
SplineSet
131 -91 m 2,0,-1
 131 500 l 1,1,-1
 214 500 l 1,2,-1
 214 -91 l 2,3,4
 214 -160 214 -160 171.5 -205 c 128,-1,5
 129 -250 129 -250 70 -250 c 1,6,-1
 70 -174 l 1,7,8
 95 -174 95 -174 113 -150.5 c 128,-1,9
 131 -127 131 -127 131 -91 c 2,0,-1
131 623 m 1,10,-1
 131 700 l 1,11,-1
 214 700 l 1,12,-1
 214 623 l 1,13,-1
 131 623 l 1,10,-1
EndSplineSet
EndChar

StartChar: k
Encoding: 107 107 77
Width: 549
Flags: W
LayerCount: 2
Fore
SplineSet
343 500 m 1,0,-1
 457 500 l 1,1,-1
 284 320 l 1,2,-1
 503 0 l 1,3,-1
 399 0 l 1,4,-1
 225 259 l 1,5,6
 213 247 213 247 190.5 224 c 128,-1,7
 168 201 168 201 157 188 c 1,8,-1
 157 0 l 1,9,-1
 74 0 l 1,10,-1
 74 750 l 1,11,-1
 157 750 l 1,12,-1
 157 305 l 1,13,14
 283 435 283 435 343 500 c 1,0,-1
EndSplineSet
EndChar

StartChar: l
Encoding: 108 108 78
Width: 245
Flags: W
LayerCount: 2
Fore
SplineSet
74 750 m 1,0,-1
 159 750 l 1,1,-1
 159 0 l 1,2,-1
 74 0 l 1,3,-1
 74 750 l 1,0,-1
EndSplineSet
EndChar

StartChar: m
Encoding: 109 109 79
Width: 774
Flags: W
LayerCount: 2
Fore
SplineSet
70 500 m 1,0,-1
 130 500 l 1,1,-1
 140 471 l 1,2,3
 196 515 196 515 261 515 c 0,4,5
 299 515 299 515 337.5 501.5 c 128,-1,6
 376 488 376 488 398 463 c 1,7,8
 456 515 456 515 529 515 c 0,9,10
 588 515 588 515 638 485.5 c 128,-1,11
 688 456 688 456 688 405 c 2,12,-1
 688 0 l 1,13,-1
 603 0 l 1,14,-1
 603 365 l 2,15,16
 603 438 603 438 516 438 c 0,17,18
 462 438 462 438 421 405 c 1,19,-1
 421 0 l 1,20,-1
 336 0 l 1,21,-1
 336 365 l 2,22,23
 336 438 336 438 249 438 c 0,24,25
 193 438 193 438 153 404 c 1,26,-1
 153 0 l 1,27,-1
 70 0 l 1,28,-1
 70 500 l 1,0,-1
EndSplineSet
EndChar

StartChar: n
Encoding: 110 110 80
Width: 569
Flags: W
LayerCount: 2
Fore
SplineSet
70 500 m 1,0,-1
 130 500 l 1,1,-1
 143 462 l 1,2,3
 225 515 225 515 305 515 c 0,4,5
 388 515 388 515 439.5 475.5 c 128,-1,6
 491 436 491 436 491 355 c 2,7,-1
 491 0 l 1,8,-1
 406 0 l 1,9,-1
 406 355 l 2,10,11
 406 438 406 438 305 438 c 0,12,13
 227 438 227 438 153 386 c 1,14,-1
 153 0 l 1,15,-1
 70 0 l 1,16,-1
 70 500 l 1,0,-1
EndSplineSet
EndChar

StartChar: o
Encoding: 111 111 81
Width: 637
Flags: W
LayerCount: 2
Fore
SplineSet
135 250 m 128,-1,1
 135 170 135 170 185 115.5 c 128,-1,2
 235 61 235 61 318 61 c 0,3,4
 400 61 400 61 450.5 115.5 c 128,-1,5
 501 170 501 170 501 250 c 128,-1,6
 501 330 501 330 450.5 384.5 c 128,-1,7
 400 439 400 439 318 439 c 0,8,9
 235 439 235 439 185 384.5 c 128,-1,0
 135 330 135 330 135 250 c 128,-1,1
54 250 m 128,-1,11
 54 362 54 362 128 438.5 c 128,-1,12
 202 515 202 515 318 515 c 0,13,14
 433 515 433 515 508 438 c 128,-1,15
 583 361 583 361 583 250 c 128,-1,16
 583 139 583 139 508 62 c 128,-1,17
 433 -15 433 -15 318 -15 c 0,18,19
 202 -15 202 -15 128 61.5 c 128,-1,10
 54 138 54 138 54 250 c 128,-1,11
EndSplineSet
EndChar

StartChar: p
Encoding: 112 112 82
Width: 568
Flags: W
LayerCount: 2
Fore
SplineSet
278 57 m 0,0,1
 335 57 335 57 370.5 88 c 128,-1,2
 406 119 406 119 418 162 c 128,-1,3
 430 205 430 205 430 262 c 0,4,5
 430 343 430 343 391 395 c 128,-1,6
 352 447 352 447 294 447 c 0,7,8
 234 447 234 447 157 415 c 1,9,-1
 157 82 l 1,10,11
 205 57 205 57 278 57 c 0,0,1
74 500 m 1,12,-1
 128 500 l 1,13,-1
 141 472 l 1,14,15
 229 515 229 515 301 515 c 0,16,17
 370 515 370 515 420 475 c 128,-1,18
 470 435 470 435 492 377 c 128,-1,19
 514 319 514 319 514 253 c 0,20,21
 514 138 514 138 456 61.5 c 128,-1,22
 398 -15 398 -15 292 -15 c 0,23,24
 221 -15 221 -15 157 18 c 1,25,-1
 157 -250 l 1,26,-1
 74 -250 l 1,27,-1
 74 500 l 1,12,-1
EndSplineSet
EndChar

StartChar: q
Encoding: 113 113 83
Width: 573
Flags: W
LayerCount: 2
Fore
SplineSet
418 99 m 1,0,-1
 418 429 l 1,1,-1
 387 433 l 1,2,3
 359 438 359 438 336 438 c 0,4,5
 238 438 238 438 187.5 379.5 c 128,-1,6
 137 321 137 321 137 237 c 0,7,8
 137 173 137 173 177 120 c 128,-1,9
 217 67 217 67 278 67 c 0,10,11
 335 67 335 67 418 99 c 1,0,-1
336 515 m 0,12,13
 412 515 412 515 503 495 c 1,14,-1
 503 -250 l 1,15,-1
 419 -250 l 1,16,-1
 419 16 l 1,17,18
 344 -10 344 -10 278 -10 c 0,19,20
 177 -10 177 -10 115.5 66 c 128,-1,21
 54 142 54 142 54 237 c 0,22,23
 54 291 54 291 70.5 339.5 c 128,-1,24
 87 388 87 388 119.5 428 c 128,-1,25
 152 468 152 468 208 491.5 c 128,-1,26
 264 515 264 515 336 515 c 0,12,13
EndSplineSet
EndChar

StartChar: r
Encoding: 114 114 84
Width: 410
Flags: W
LayerCount: 2
Fore
SplineSet
70 500 m 1,0,-1
 130 500 l 1,1,-1
 142 465 l 1,2,3
 206 514 206 514 256 514 c 0,4,5
 310 514 310 514 356 490 c 1,6,-1
 323 423 l 1,7,8
 280 438 280 438 244 438 c 0,9,10
 194 438 194 438 153 401 c 1,11,-1
 153 0 l 1,12,-1
 70 0 l 1,13,-1
 70 500 l 1,0,-1
EndSplineSet
EndChar

StartChar: s
Encoding: 115 115 85
Width: 503
Flags: W
LayerCount: 2
Fore
SplineSet
54 65 m 1,0,-1
 108 122 l 1,1,2
 127 107 127 107 157 91 c 0,3,4
 215 61 215 61 257 61 c 0,5,6
 294 61 294 61 330 81.5 c 128,-1,7
 366 102 366 102 366 139 c 0,8,9
 366 173 366 173 331.5 195 c 128,-1,10
 297 217 297 217 215 247 c 0,11,12
 181 259 181 259 162 267 c 128,-1,13
 143 275 143 275 118.5 290.5 c 128,-1,14
 94 306 94 306 82.5 327 c 128,-1,15
 71 348 71 348 71 375 c 0,16,17
 71 438 71 438 129 476.5 c 128,-1,18
 187 515 187 515 260 515 c 0,19,20
 314 515 314 515 376 489 c 0,21,22
 402 478 402 478 425 463 c 1,23,-1
 374 402 l 1,24,25
 358 412 358 412 339 420 c 0,26,27
 295 439 295 439 260 439 c 0,28,29
 219 439 219 439 186.5 421 c 128,-1,30
 154 403 154 403 154 375 c 0,31,32
 154 366 154 366 162 357.5 c 128,-1,33
 170 349 170 349 187.5 341 c 128,-1,34
 205 333 205 333 217.5 328 c 128,-1,35
 230 323 230 323 253 315 c 0,36,37
 309 294 309 294 336.5 281.5 c 128,-1,38
 364 269 364 269 394.5 248 c 128,-1,39
 425 227 425 227 437 201 c 128,-1,40
 449 175 449 175 449 139 c 0,41,42
 449 88 449 88 415 51.5 c 128,-1,43
 381 15 381 15 339 0 c 128,-1,44
 297 -15 297 -15 257 -15 c 0,45,46
 196 -15 196 -15 118 25 c 0,47,48
 84 43 84 43 54 65 c 1,0,-1
EndSplineSet
EndChar

StartChar: t
Encoding: 116 116 86
Width: 402
Flags: W
LayerCount: 2
Fore
SplineSet
54 423 m 1,0,-1
 54 500 l 1,1,-1
 139 500 l 1,2,-1
 139 645 l 1,3,-1
 224 645 l 1,4,-1
 224 500 l 1,5,-1
 348 500 l 1,6,-1
 348 423 l 1,7,-1
 224 423 l 1,8,-1
 224 147 l 2,9,10
 224 110 224 110 235.5 93.5 c 128,-1,11
 247 77 247 77 286 77 c 2,12,-1
 338 77 l 1,13,-1
 338 0 l 1,14,-1
 248 0 l 2,15,16
 199 0 199 0 169 26 c 128,-1,17
 139 52 139 52 139 96 c 2,18,-1
 139 423 l 1,19,-1
 54 423 l 1,0,-1
EndSplineSet
EndChar

StartChar: u
Encoding: 117 117 87
Width: 569
Flags: W
LayerCount: 2
Fore
SplineSet
284 -15 m 128,-1,1
 204 -15 204 -15 141 29.5 c 128,-1,2
 78 74 78 74 78 153 c 2,3,-1
 78 500 l 1,4,-1
 161 500 l 1,5,-1
 161 153 l 2,6,7
 161 111 161 111 198 88 c 128,-1,8
 235 65 235 65 284 65 c 0,9,10
 334 65 334 65 370.5 88 c 128,-1,11
 407 111 407 111 407 153 c 2,12,-1
 407 500 l 1,13,-1
 491 500 l 1,14,-1
 491 153 l 2,15,16
 491 75 491 75 427.5 30 c 128,-1,0
 364 -15 364 -15 284 -15 c 128,-1,1
EndSplineSet
EndChar

StartChar: v
Encoding: 118 118 88
Width: 579
Flags: W
LayerCount: 2
Fore
SplineSet
443 500 m 1,0,-1
 533 500 l 1,1,-1
 337 0 l 1,2,-1
 241 0 l 1,3,-1
 46 500 l 1,4,-1
 136 500 l 1,5,-1
 289 88 l 1,6,-1
 443 500 l 1,0,-1
EndSplineSet
EndChar

StartChar: w
Encoding: 119 119 89
Width: 816
Flags: W
LayerCount: 2
Fore
SplineSet
680 500 m 1,0,-1
 770 500 l 1,1,-1
 613 0 l 1,2,-1
 517 0 l 1,3,-1
 407 395 l 1,4,-1
 298 0 l 1,5,-1
 203 0 l 1,6,-1
 46 500 l 1,7,-1
 136 500 l 1,8,-1
 250 104 l 1,9,-1
 366 500 l 1,10,-1
 450 500 l 1,11,-1
 565 104 l 1,12,-1
 680 500 l 1,0,-1
EndSplineSet
EndChar

StartChar: x
Encoding: 120 120 90
Width: 555
Flags: W
LayerCount: 2
Fore
SplineSet
416 500 m 1,0,-1
 509 500 l 1,1,-1
 323 250 l 1,2,-1
 509 0 l 1,3,-1
 416 0 l 1,4,-1
 278 187 l 1,5,-1
 140 0 l 1,6,-1
 46 0 l 1,7,-1
 231 250 l 1,8,-1
 46 500 l 1,9,-1
 140 500 l 1,10,-1
 278 313 l 1,11,-1
 416 500 l 1,0,-1
EndSplineSet
EndChar

StartChar: y
Encoding: 121 121 91
Width: 558
Flags: W
LayerCount: 2
Fore
SplineSet
46 500 m 1,0,-1
 141 500 l 1,1,-1
 278 134 l 1,2,-1
 418 500 l 1,3,-1
 512 500 l 1,4,-1
 224 -250 l 1,5,-1
 130 -250 l 1,6,-1
 237 25 l 1,7,8
 81 413 81 413 46 500 c 1,0,-1
EndSplineSet
EndChar

StartChar: z
Encoding: 122 122 92
Width: 467
Flags: W
LayerCount: 2
Fore
SplineSet
413 500 m 1,0,-1
 413 424 l 1,1,-1
 144 76 l 1,2,-1
 413 76 l 1,3,-1
 413 0 l 1,4,-1
 54 0 l 1,5,-1
 54 76 l 1,6,-1
 323 424 l 1,7,-1
 54 424 l 1,8,-1
 54 500 l 1,9,-1
 413 500 l 1,0,-1
EndSplineSet
EndChar

StartChar: braceleft
Encoding: 123 123 93
Width: 318
Flags: W
LayerCount: 2
Fore
SplineSet
7 219 m 1,0,-1
 7 281 l 1,1,2
 66 281 66 281 86 333.5 c 128,-1,3
 106 386 106 386 106 501 c 0,4,5
 106 528 106 528 104 600 c 1,6,7
 104 750 104 750 277 750 c 2,8,-1
 294 750 l 1,9,-1
 294 660 l 1,10,11
 269 660 269 660 255 658 c 128,-1,12
 241 656 241 656 225 648 c 128,-1,13
 209 640 209 640 201.5 621 c 128,-1,14
 194 602 194 602 194 570 c 0,15,16
 194 496 194 496 189 443 c 128,-1,17
 184 390 184 390 171.5 343.5 c 128,-1,18
 159 297 159 297 134.5 273.5 c 128,-1,19
 110 250 110 250 74 250 c 1,20,21
 110 250 110 250 134.5 226.5 c 128,-1,22
 159 203 159 203 171.5 156.5 c 128,-1,23
 184 110 184 110 189 57 c 128,-1,24
 194 4 194 4 194 -70 c 0,25,26
 194 -102 194 -102 201.5 -121 c 128,-1,27
 209 -140 209 -140 225 -148 c 128,-1,28
 241 -156 241 -156 255 -158 c 128,-1,29
 269 -160 269 -160 294 -160 c 1,30,-1
 294 -250 l 1,31,-1
 277 -250 l 2,32,33
 104 -250 104 -250 104 -100 c 1,34,35
 106 -28 106 -28 106 -1 c 0,36,37
 106 114 106 114 86 166.5 c 128,-1,38
 66 219 66 219 7 219 c 1,0,-1
EndSplineSet
EndChar

StartChar: bar
Encoding: 124 124 94
Width: 166
Flags: W
LayerCount: 2
Fore
SplineSet
129 750 m 1,0,-1
 129 -250 l 1,1,-1
 39 -250 l 1,2,-1
 39 750 l 1,3,-1
 129 750 l 1,0,-1
EndSplineSet
EndChar

StartChar: braceright
Encoding: 125 125 95
Width: 319
Flags: W
LayerCount: 2
Fore
SplineSet
312 281 m 1,0,-1
 312 219 l 1,1,2
 253 219 253 219 233 166.5 c 128,-1,3
 213 114 213 114 213 -1 c 0,4,5
 213 -28 213 -28 215 -100 c 1,6,7
 215 -250 215 -250 42 -250 c 2,8,-1
 25 -250 l 1,9,-1
 25 -160 l 1,10,11
 50 -160 50 -160 64 -158 c 128,-1,12
 78 -156 78 -156 94 -148 c 128,-1,13
 110 -140 110 -140 117.5 -121 c 128,-1,14
 125 -102 125 -102 125 -70 c 0,15,16
 125 -26 125 -26 125 -4 c 128,-1,17
 125 18 125 18 126.5 55 c 128,-1,18
 128 92 128 92 130.5 111 c 128,-1,19
 133 130 133 130 137.5 157 c 128,-1,20
 142 184 142 184 149.5 197 c 128,-1,21
 157 210 157 210 167 224.5 c 128,-1,22
 177 239 177 239 192 244.5 c 128,-1,23
 207 250 207 250 225 250 c 1,24,25
 207 250 207 250 192 255.5 c 128,-1,26
 177 261 177 261 167 275.5 c 128,-1,27
 157 290 157 290 149.5 303 c 128,-1,28
 142 316 142 316 137.5 343 c 128,-1,29
 133 370 133 370 130.5 389 c 128,-1,30
 128 408 128 408 126.5 445 c 128,-1,31
 125 482 125 482 125 504 c 128,-1,32
 125 526 125 526 125 570 c 0,33,34
 125 602 125 602 117.5 621 c 128,-1,35
 110 640 110 640 94 648 c 128,-1,36
 78 656 78 656 64 658 c 128,-1,37
 50 660 50 660 25 660 c 1,38,-1
 25 750 l 1,39,-1
 42 750 l 2,40,41
 215 750 215 750 215 600 c 1,42,43
 213 528 213 528 213 501 c 0,44,45
 213 386 213 386 233 333.5 c 128,-1,46
 253 281 253 281 312 281 c 1,0,-1
EndSplineSet
EndChar

StartChar: exclamdown
Encoding: 161 161 96
Width: 300
Flags: W
LayerCount: 2
Fore
SplineSet
200 600 m 1,0,-1
 200 500 l 1,1,-1
 100 500 l 1,2,-1
 100 600 l 1,3,-1
 200 600 l 1,0,-1
200 399 m 1,4,-1
 200 -100 l 1,5,-1
 100 -100 l 1,6,-1
 100 399 l 1,7,-1
 200 399 l 1,4,-1
EndSplineSet
EndChar

StartChar: cent
Encoding: 162 162 97
Width: 458
Flags: W
LayerCount: 2
Fore
SplineSet
105 250 m 128,-1,1
 105 187 105 187 141 137 c 128,-1,2
 177 87 177 87 234 69 c 1,3,-1
 234 431 l 1,4,5
 177 413 177 413 141 363 c 128,-1,0
 105 313 105 313 105 250 c 128,-1,1
234 611 m 1,6,-1
 304 611 l 1,7,-1
 304 515 l 1,8,9
 354 514 354 514 421 500 c 1,10,-1
 421 424 l 1,11,12
 354 438 354 438 304 439 c 1,13,-1
 304 61 l 1,14,15
 362 62 362 62 421 76 c 1,16,-1
 421 0 l 1,17,18
 354 -14 354 -14 304 -15 c 1,19,-1
 304 -99 l 1,20,-1
 234 -99 l 1,21,-1
 234 -9 l 1,22,23
 143 9 143 9 83 82 c 128,-1,24
 23 155 23 155 23 250 c 128,-1,25
 23 345 23 345 83 418 c 128,-1,26
 143 491 143 491 234 509 c 1,27,-1
 234 611 l 1,6,-1
EndSplineSet
EndChar

StartChar: dieresis
Encoding: 168 168 98
Width: 340
Flags: W
LayerCount: 2
Fore
SplineSet
214 750 m 1,0,-1
 299 750 l 1,1,-1
 299 658 l 1,2,-1
 214 658 l 1,3,-1
 214 750 l 1,0,-1
39 750 m 1,4,-1
 124 750 l 1,5,-1
 124 658 l 1,6,-1
 39 658 l 1,7,-1
 39 750 l 1,4,-1
EndSplineSet
EndChar

StartChar: copyright
Encoding: 169 169 99
Width: 638
Flags: W
LayerCount: 2
Fore
SplineSet
252 499 m 128,-1,1
 252 468 252 468 273.5 446 c 128,-1,2
 295 424 295 424 324 424 c 0,3,4
 349 424 349 424 379 429 c 1,5,-1
 379 399 l 1,6,7
 352 393 352 393 324 393 c 0,8,9
 281 393 281 393 250.5 424 c 128,-1,10
 220 455 220 455 220 499 c 0,11,12
 220 544 220 544 250 574.5 c 128,-1,13
 280 605 280 605 324 605 c 0,14,15
 352 605 352 605 379 599 c 1,16,-1
 379 569 l 1,17,18
 352 575 352 575 324 575 c 0,19,20
 295 575 295 575 273.5 552.5 c 128,-1,0
 252 530 252 530 252 499 c 128,-1,1
172 503 m 128,-1,22
 172 439 172 439 212 395.5 c 128,-1,23
 252 352 252 352 318 352 c 128,-1,24
 384 352 384 352 424 395.5 c 128,-1,25
 464 439 464 439 464 503 c 128,-1,26
 464 567 464 567 424 610.5 c 128,-1,27
 384 654 384 654 318 654 c 128,-1,28
 252 654 252 654 212 610.5 c 128,-1,21
 172 567 172 567 172 503 c 128,-1,22
107 503 m 128,-1,30
 107 592 107 592 166 653.5 c 128,-1,31
 225 715 225 715 318 715 c 0,32,33
 410 715 410 715 470 653.5 c 128,-1,34
 530 592 530 592 530 503 c 128,-1,35
 530 414 530 414 470 352.5 c 128,-1,36
 410 291 410 291 318 291 c 0,37,38
 225 291 225 291 166 352.5 c 128,-1,29
 107 414 107 414 107 503 c 128,-1,30
EndSplineSet
EndChar

StartChar: ordfeminine
Encoding: 170 170 100
Width: 221
Flags: W
LayerCount: 2
Fore
SplineSet
95 498 m 0,0,1
 120 498 120 498 145 515 c 1,2,-1
 145 565 l 1,3,-1
 99 565 l 2,4,5
 68 565 68 565 68 534 c 0,6,7
 68 498 68 498 95 498 c 0,0,1
99 600 m 2,8,-1
 145 600 l 1,9,-1
 145 610 l 2,10,11
 145 640 145 640 117 640 c 1,12,-1
 48 633 l 1,13,-1
 48 672 l 1,14,15
 100 678 100 678 130 678 c 0,16,17
 159 678 159 678 172 661 c 128,-1,18
 185 644 185 644 185 622 c 2,19,-1
 185 468 l 1,20,-1
 154 468 l 1,21,-1
 149 484 l 1,22,23
 119 464 119 464 90 464 c 0,24,25
 59 464 59 464 43 485 c 128,-1,26
 27 506 27 506 27 534 c 128,-1,27
 27 562 27 562 45.5 581 c 128,-1,28
 64 600 64 600 99 600 c 2,8,-1
EndSplineSet
EndChar

StartChar: logicalnot
Encoding: 172 172 101
Width: 548
Flags: W
LayerCount: 2
Fore
SplineSet
8 301 m 1,0,-1
 8 391 l 1,1,-1
 498 391 l 1,2,-1
 498 172 l 1,3,-1
 397 172 l 1,4,-1
 397 301 l 1,5,-1
 8 301 l 1,0,-1
EndSplineSet
EndChar

StartChar: registered
Encoding: 174 174 102
Width: 632
Flags: W
LayerCount: 2
Fore
SplineSet
281 493 m 1,0,-1
 319 493 l 2,1,2
 338 493 338 493 350.5 505 c 128,-1,3
 363 517 363 517 363 537 c 128,-1,4
 363 557 363 557 350.5 569.5 c 128,-1,5
 338 582 338 582 319 582 c 2,6,-1
 281 582 l 1,7,-1
 281 493 l 1,0,-1
323 474 m 1,8,-1
 281 474 l 1,9,-1
 281 401 l 1,10,-1
 256 401 l 1,11,-1
 256 601 l 1,12,-1
 319 601 l 2,13,14
 347 601 347 601 367.5 582.5 c 128,-1,15
 388 564 388 564 388 537 c 0,16,17
 388 517 388 517 376 501 c 128,-1,18
 364 485 364 485 345 478 c 1,19,-1
 391 401 l 1,20,-1
 365 401 l 1,21,-1
 323 474 l 1,8,-1
172 503 m 128,-1,23
 172 439 172 439 212 395.5 c 128,-1,24
 252 352 252 352 318 352 c 128,-1,25
 384 352 384 352 424 395.5 c 128,-1,26
 464 439 464 439 464 503 c 128,-1,27
 464 567 464 567 424 610.5 c 128,-1,28
 384 654 384 654 318 654 c 128,-1,29
 252 654 252 654 212 610.5 c 128,-1,22
 172 567 172 567 172 503 c 128,-1,23
107 503 m 128,-1,31
 107 592 107 592 166 653.5 c 128,-1,32
 225 715 225 715 318 715 c 0,33,34
 410 715 410 715 470 653.5 c 128,-1,35
 530 592 530 592 530 503 c 128,-1,36
 530 414 530 414 470 352.5 c 128,-1,37
 410 291 410 291 318 291 c 0,38,39
 225 291 225 291 166 352.5 c 128,-1,30
 107 414 107 414 107 503 c 128,-1,31
EndSplineSet
EndChar

StartChar: degree
Encoding: 176 176 103
Width: 270
Flags: W
LayerCount: 2
Fore
SplineSet
67 567 m 128,-1,1
 67 537 67 537 85.5 516.5 c 128,-1,2
 104 496 104 496 135 496 c 128,-1,3
 166 496 166 496 184.5 516.5 c 128,-1,4
 203 537 203 537 203 567 c 128,-1,5
 203 597 203 597 184.5 617.5 c 128,-1,6
 166 638 166 638 135 638 c 128,-1,7
 104 638 104 638 85.5 617.5 c 128,-1,0
 67 597 67 597 67 567 c 128,-1,1
28 567 m 128,-1,9
 28 612 28 612 58 643.5 c 128,-1,10
 88 675 88 675 135 675 c 128,-1,11
 182 675 182 675 212.5 643.5 c 128,-1,12
 243 612 243 612 243 567 c 128,-1,13
 243 522 243 522 212.5 490.5 c 128,-1,14
 182 459 182 459 135 459 c 128,-1,15
 88 459 88 459 58 490.5 c 128,-1,8
 28 522 28 522 28 567 c 128,-1,9
EndSplineSet
EndChar

StartChar: plusminus
Encoding: 177 177 104
Width: 447
Flags: W
LayerCount: 2
Fore
SplineSet
8 0 m 1,0,-1
 8 90 l 1,1,-1
 428 90 l 1,2,-1
 428 0 l 1,3,-1
 8 0 l 1,0,-1
8 301 m 1,4,-1
 8 391 l 1,5,-1
 173 391 l 1,6,-1
 173 546 l 1,7,-1
 263 546 l 1,8,-1
 263 391 l 1,9,-1
 428 391 l 1,10,-1
 428 301 l 1,11,-1
 263 301 l 1,12,-1
 263 146 l 1,13,-1
 173 146 l 1,14,-1
 173 301 l 1,15,-1
 8 301 l 1,4,-1
EndSplineSet
EndChar

StartChar: twosuperior
Encoding: 178 178 105
Width: 240
Flags: W
LayerCount: 2
Fore
SplineSet
31 650 m 1,0,1
 80 683 80 683 115 683 c 0,2,3
 151 683 151 683 180 659 c 128,-1,4
 209 635 209 635 209 596 c 0,5,6
 209 550 209 550 141 482 c 1,7,-1
 96 436 l 1,8,-1
 211 436 l 1,9,-1
 211 394 l 1,10,-1
 38 394 l 1,11,-1
 38 435 l 1,12,-1
 116 512 l 2,13,14
 166 562 166 562 166 595 c 0,15,16
 166 619 166 619 151.5 633 c 128,-1,17
 137 647 137 647 115 647 c 0,18,19
 91 647 91 647 55 621 c 1,20,21
 53 624 53 624 44.5 634 c 128,-1,22
 36 644 36 644 31 650 c 1,0,1
EndSplineSet
EndChar

StartChar: threesuperior
Encoding: 179 179 106
Width: 236
Flags: W
LayerCount: 2
Fore
SplineSet
25 426 m 1,0,-1
 55 450 l 1,1,2
 81 424 81 424 114 424 c 0,3,4
 138 424 138 424 152.5 439.5 c 128,-1,5
 167 455 167 455 167 480 c 0,6,7
 167 503 167 503 152.5 518 c 128,-1,8
 138 533 138 533 111 535 c 1,9,-1
 111 572 l 1,10,11
 152 577 152 577 152 608 c 0,12,13
 152 623 152 623 142.5 635.5 c 128,-1,14
 133 648 133 648 113 648 c 0,15,16
 90 648 90 648 61 628 c 1,17,-1
 38 657 l 1,18,19
 78 683 78 683 112 683 c 0,20,21
 151 683 151 683 173.5 661 c 128,-1,22
 196 639 196 639 196 611 c 0,23,24
 196 582 196 582 168 555 c 1,25,26
 188 542 188 542 199.5 520.5 c 128,-1,27
 211 499 211 499 211 480 c 0,28,29
 211 446 211 446 185 417 c 128,-1,30
 159 388 159 388 110 388 c 0,31,32
 54 388 54 388 25 426 c 1,0,-1
EndSplineSet
EndChar

StartChar: acute
Encoding: 180 180 107
Width: 321
Flags: W
LayerCount: 2
Fore
SplineSet
257 750 m 1,0,-1
 139 617 l 1,1,-1
 49 617 l 1,2,-1
 147 750 l 1,3,-1
 257 750 l 1,0,-1
EndSplineSet
EndChar

StartChar: cedilla
Encoding: 184 184 108
Width: 275
Flags: W
LayerCount: 2
Fore
SplineSet
82 -75 m 1,0,-1
 99 5 l 1,1,-1
 177 5 l 1,2,-1
 166 -42 l 1,3,4
 240 -55 240 -55 240 -117 c 0,5,6
 240 -163 240 -163 200.5 -188 c 128,-1,7
 161 -213 161 -213 100 -213 c 0,8,9
 78 -213 78 -213 46 -208 c 1,10,-1
 58 -151 l 1,11,12
 85 -155 85 -155 102 -155 c 0,13,14
 164 -155 164 -155 164 -117 c 0,15,16
 164 -75 164 -75 82 -75 c 1,0,-1
EndSplineSet
EndChar

StartChar: onesuperior
Encoding: 185 185 109
Width: 137
Flags: W
LayerCount: 2
Fore
SplineSet
8 665 m 1,0,-1
 100 678 l 1,1,-1
 100 394 l 1,2,-1
 57 394 l 1,3,-1
 57 637 l 1,4,-1
 8 630 l 1,5,-1
 8 665 l 1,0,-1
EndSplineSet
EndChar

StartChar: questiondown
Encoding: 191 191 110
Width: 480
Flags: W
LayerCount: 2
Fore
SplineSet
213 510 m 1,0,-1
 213 600 l 1,1,-1
 303 600 l 1,2,-1
 303 510 l 1,3,-1
 213 510 l 1,0,-1
213 432 m 1,4,-1
 303 432 l 1,5,6
 303 396 303 396 287 361.5 c 128,-1,7
 271 327 271 327 254.5 307.5 c 128,-1,8
 238 288 238 288 203 251 c 0,9,10
 177 223 177 223 164 207 c 128,-1,11
 151 191 151 191 136.5 157.5 c 128,-1,12
 122 124 122 124 122 88 c 0,13,14
 122 41 122 41 155.5 -0.5 c 128,-1,15
 189 -42 189 -42 254 -42 c 0,16,17
 337 -42 337 -42 396 1 c 1,18,-1
 448 -59 l 1,19,20
 371 -115 371 -115 254 -115 c 0,21,22
 197 -115 197 -115 152 -95 c 128,-1,23
 107 -75 107 -75 82 -43 c 128,-1,24
 57 -11 57 -11 44.5 22.5 c 128,-1,25
 32 56 32 56 32 88 c 0,26,27
 32 139 32 139 50.5 182.5 c 128,-1,28
 69 226 69 226 95.5 256 c 128,-1,29
 122 286 122 286 149 313 c 128,-1,30
 176 340 176 340 194.5 370 c 128,-1,31
 213 400 213 400 213 432 c 1,4,-1
EndSplineSet
EndChar

StartChar: Agrave
Encoding: 192 192 111
Width: 751
Flags: W
LayerCount: 2
Fore
SplineSet
369 817 m 1,0,-1
 251 950 l 1,1,-1
 361 950 l 1,2,-1
 459 817 l 1,3,-1
 369 817 l 1,0,-1
374 608 m 1,4,-1
 254 300 l 1,5,-1
 496 300 l 1,6,-1
 374 608 l 1,4,-1
329 700 m 1,7,-1
 419 700 l 1,8,-1
 711 0 l 1,9,-1
 621 0 l 1,10,-1
 523 234 l 1,11,-1
 226 234 l 1,12,-1
 130 0 l 1,13,-1
 40 0 l 1,14,-1
 329 700 l 1,7,-1
EndSplineSet
EndChar

StartChar: Aacute
Encoding: 193 193 112
Width: 751
Flags: W
LayerCount: 2
Fore
SplineSet
499 950 m 1,0,-1
 381 817 l 1,1,-1
 291 817 l 1,2,-1
 389 950 l 1,3,-1
 499 950 l 1,0,-1
254 300 m 1,4,-1
 496 300 l 1,5,-1
 374 608 l 1,6,-1
 254 300 l 1,4,-1
419 700 m 1,7,-1
 711 0 l 1,8,-1
 621 0 l 1,9,-1
 523 234 l 1,10,-1
 226 234 l 1,11,-1
 130 0 l 1,12,-1
 40 0 l 1,13,-1
 329 700 l 1,14,-1
 419 700 l 1,7,-1
EndSplineSet
EndChar

StartChar: Acircumflex
Encoding: 194 194 113
Width: 751
Flags: W
LayerCount: 2
Fore
SplineSet
444 817 m 1,0,-1
 375 915 l 1,1,-1
 306 817 l 1,2,-1
 216 817 l 1,3,-1
 314 950 l 1,4,-1
 436 950 l 1,5,-1
 534 817 l 1,6,-1
 444 817 l 1,0,-1
254 300 m 1,7,-1
 496 300 l 1,8,-1
 374 608 l 1,9,-1
 254 300 l 1,7,-1
419 700 m 1,10,-1
 711 0 l 1,11,-1
 621 0 l 1,12,-1
 523 234 l 1,13,-1
 226 234 l 1,14,-1
 130 0 l 1,15,-1
 40 0 l 1,16,-1
 329 700 l 1,17,-1
 419 700 l 1,10,-1
EndSplineSet
EndChar

StartChar: Atilde
Encoding: 195 195 114
Width: 751
Flags: W
LayerCount: 2
Fore
SplineSet
309 950 m 0,0,1
 332 950 332 950 371 930.5 c 128,-1,2
 410 911 410 911 433 911 c 0,3,4
 445 911 445 911 451.5 920.5 c 128,-1,5
 458 930 458 930 459 940 c 2,6,-1
 460 950 l 1,7,-1
 526 950 l 1,8,9
 526 906 526 906 506 873.5 c 128,-1,10
 486 841 486 841 446 841 c 0,11,12
 421 841 421 841 364 865 c 0,13,14
 330 880 330 880 317 880 c 0,15,16
 308 880 308 880 300.5 870 c 128,-1,17
 293 860 293 860 290 850 c 2,18,-1
 287 841 l 1,19,-1
 224 841 l 1,20,21
 224 887 224 887 252 918.5 c 128,-1,22
 280 950 280 950 309 950 c 0,0,1
254 300 m 1,23,-1
 496 300 l 1,24,-1
 374 608 l 1,25,-1
 254 300 l 1,23,-1
419 700 m 1,26,-1
 711 0 l 1,27,-1
 621 0 l 1,28,-1
 523 234 l 1,29,-1
 226 234 l 1,30,-1
 130 0 l 1,31,-1
 40 0 l 1,32,-1
 329 700 l 1,33,-1
 419 700 l 1,26,-1
EndSplineSet
EndChar

StartChar: Adieresis
Encoding: 196 196 115
Width: 751
Flags: W
LayerCount: 2
Fore
SplineSet
420 950 m 1,0,-1
 505 950 l 1,1,-1
 505 858 l 1,2,-1
 420 858 l 1,3,-1
 420 950 l 1,0,-1
245 950 m 1,4,-1
 330 950 l 1,5,-1
 330 858 l 1,6,-1
 245 858 l 1,7,-1
 245 950 l 1,4,-1
254 300 m 1,8,-1
 496 300 l 1,9,-1
 374 608 l 1,10,-1
 254 300 l 1,8,-1
419 700 m 1,11,-1
 711 0 l 1,12,-1
 621 0 l 1,13,-1
 523 234 l 1,14,-1
 226 234 l 1,15,-1
 130 0 l 1,16,-1
 40 0 l 1,17,-1
 329 700 l 1,18,-1
 419 700 l 1,11,-1
EndSplineSet
EndChar

StartChar: Aring
Encoding: 197 197 116
Width: 751
Flags: W
LayerCount: 2
Fore
SplineSet
333 868 m 128,-1,1
 333 851 333 851 345.5 838.5 c 128,-1,2
 358 826 358 826 375 826 c 128,-1,3
 392 826 392 826 404.5 838.5 c 128,-1,4
 417 851 417 851 417 868 c 128,-1,5
 417 885 417 885 404.5 897.5 c 128,-1,6
 392 910 392 910 375 910 c 128,-1,7
 358 910 358 910 345.5 897.5 c 128,-1,0
 333 885 333 885 333 868 c 128,-1,1
293 868 m 128,-1,9
 293 902 293 902 317 926 c 128,-1,10
 341 950 341 950 375 950 c 128,-1,11
 409 950 409 950 433 926 c 128,-1,12
 457 902 457 902 457 868 c 128,-1,13
 457 834 457 834 433 810 c 128,-1,14
 409 786 409 786 375 786 c 128,-1,15
 341 786 341 786 317 810 c 128,-1,8
 293 834 293 834 293 868 c 128,-1,9
374 608 m 1,16,-1
 254 300 l 1,17,-1
 496 300 l 1,18,-1
 374 608 l 1,16,-1
329 700 m 1,19,-1
 419 700 l 1,20,-1
 711 0 l 1,21,-1
 621 0 l 1,22,-1
 523 234 l 1,23,-1
 226 234 l 1,24,-1
 130 0 l 1,25,-1
 40 0 l 1,26,-1
 329 700 l 1,19,-1
EndSplineSet
EndChar

StartChar: AE
Encoding: 198 198 117
Width: 941
Flags: W
LayerCount: 2
Fore
SplineSet
281 300 m 1,0,-1
 453 300 l 1,1,-1
 453 636 l 1,2,-1
 281 300 l 1,0,-1
899 64 m 1,3,-1
 899 0 l 1,4,-1
 453 0 l 1,5,-1
 453 234 l 1,6,-1
 247 234 l 1,7,-1
 131 0 l 1,8,-1
 41 0 l 1,9,-1
 391 700 l 1,10,-1
 899 700 l 1,11,-1
 899 636 l 1,12,-1
 543 636 l 1,13,-1
 543 414 l 1,14,-1
 839 414 l 1,15,-1
 839 350 l 1,16,-1
 543 350 l 1,17,-1
 543 64 l 1,18,-1
 899 64 l 1,3,-1
EndSplineSet
EndChar

StartChar: Ccedilla
Encoding: 199 199 118
Width: 640
Flags: W
LayerCount: 2
Fore
SplineSet
332 -11 m 1,0,1
 198 12 198 12 111 114 c 128,-1,2
 24 216 24 216 24 350 c 0,3,4
 24 500 24 500 131.5 607.5 c 128,-1,5
 239 715 239 715 389 715 c 0,6,7
 511 715 511 715 611 639 c 1,8,-1
 553 581 l 1,9,10
 477 639 477 639 389 639 c 0,11,12
 275 639 275 639 194.5 554 c 128,-1,13
 114 469 114 469 114 350 c 128,-1,14
 114 231 114 231 194.5 146 c 128,-1,15
 275 61 275 61 389 61 c 0,16,17
 479 61 479 61 553 118 c 1,18,-1
 611 60 l 1,19,20
 520 -7 520 -7 409 -14 c 1,21,-1
 403 -42 l 1,22,23
 477 -55 477 -55 477 -117 c 0,24,25
 477 -162 477 -162 437.5 -187.5 c 128,-1,26
 398 -213 398 -213 337 -213 c 0,27,28
 313 -213 313 -213 283 -208 c 1,29,-1
 295 -151 l 1,30,31
 322 -155 322 -155 339 -155 c 0,32,33
 401 -155 401 -155 401 -117 c 0,34,35
 401 -75 401 -75 319 -75 c 1,36,-1
 332 -11 l 1,0,1
EndSplineSet
EndChar

StartChar: Egrave
Encoding: 200 200 119
Width: 575
Flags: W
LayerCount: 2
Fore
SplineSet
271 817 m 1,0,-1
 153 950 l 1,1,-1
 263 950 l 1,2,-1
 361 817 l 1,3,-1
 271 817 l 1,0,-1
532 64 m 1,4,-1
 532 0 l 1,5,-1
 86 0 l 1,6,-1
 86 700 l 1,7,-1
 532 700 l 1,8,-1
 532 636 l 1,9,-1
 176 636 l 1,10,-1
 176 414 l 1,11,-1
 472 414 l 1,12,-1
 472 350 l 1,13,-1
 176 350 l 1,14,-1
 176 64 l 1,15,-1
 532 64 l 1,4,-1
EndSplineSet
EndChar

StartChar: Eacute
Encoding: 201 201 120
Width: 575
Flags: W
LayerCount: 2
Fore
SplineSet
431 950 m 1,0,-1
 313 817 l 1,1,-1
 223 817 l 1,2,-1
 321 950 l 1,3,-1
 431 950 l 1,0,-1
532 0 m 1,4,-1
 86 0 l 1,5,-1
 86 700 l 1,6,-1
 532 700 l 1,7,-1
 532 636 l 1,8,-1
 176 636 l 1,9,-1
 176 414 l 1,10,-1
 472 414 l 1,11,-1
 472 350 l 1,12,-1
 176 350 l 1,13,-1
 176 64 l 1,14,-1
 532 64 l 1,15,-1
 532 0 l 1,4,-1
EndSplineSet
EndChar

StartChar: Ecircumflex
Encoding: 202 202 121
Width: 575
Flags: W
LayerCount: 2
Fore
SplineSet
356 817 m 1,0,-1
 287 915 l 1,1,-1
 218 817 l 1,2,-1
 128 817 l 1,3,-1
 226 950 l 1,4,-1
 348 950 l 1,5,-1
 446 817 l 1,6,-1
 356 817 l 1,0,-1
532 0 m 1,7,-1
 86 0 l 1,8,-1
 86 700 l 1,9,-1
 532 700 l 1,10,-1
 532 636 l 1,11,-1
 176 636 l 1,12,-1
 176 414 l 1,13,-1
 472 414 l 1,14,-1
 472 350 l 1,15,-1
 176 350 l 1,16,-1
 176 64 l 1,17,-1
 532 64 l 1,18,-1
 532 0 l 1,7,-1
EndSplineSet
EndChar

StartChar: Edieresis
Encoding: 203 203 122
Width: 575
Flags: W
LayerCount: 2
Fore
SplineSet
332 950 m 1,0,-1
 417 950 l 1,1,-1
 417 858 l 1,2,-1
 332 858 l 1,3,-1
 332 950 l 1,0,-1
157 950 m 1,4,-1
 242 950 l 1,5,-1
 242 858 l 1,6,-1
 157 858 l 1,7,-1
 157 950 l 1,4,-1
532 0 m 1,8,-1
 86 0 l 1,9,-1
 86 700 l 1,10,-1
 532 700 l 1,11,-1
 532 636 l 1,12,-1
 176 636 l 1,13,-1
 176 414 l 1,14,-1
 472 414 l 1,15,-1
 472 350 l 1,16,-1
 176 350 l 1,17,-1
 176 64 l 1,18,-1
 532 64 l 1,19,-1
 532 0 l 1,8,-1
EndSplineSet
EndChar

StartChar: Igrave
Encoding: 204 204 123
Width: 268
Flags: W
LayerCount: 2
Fore
SplineSet
155 817 m 1,0,-1
 37 950 l 1,1,-1
 147 950 l 1,2,-1
 245 817 l 1,3,-1
 155 817 l 1,0,-1
186 700 m 1,4,-1
 186 0 l 1,5,-1
 96 0 l 1,6,-1
 96 700 l 1,7,-1
 186 700 l 1,4,-1
EndSplineSet
EndChar

StartChar: Iacute
Encoding: 205 205 124
Width: 268
Flags: W
LayerCount: 2
Fore
SplineSet
247 950 m 1,0,-1
 129 817 l 1,1,-1
 39 817 l 1,2,-1
 137 950 l 1,3,-1
 247 950 l 1,0,-1
188 0 m 1,4,-1
 98 0 l 1,5,-1
 98 700 l 1,6,-1
 188 700 l 1,7,-1
 188 0 l 1,4,-1
EndSplineSet
EndChar

StartChar: Icircumflex
Encoding: 206 206 125
Width: 490
Flags: W
LayerCount: 2
Fore
SplineSet
314 817 m 1,0,-1
 245 915 l 1,1,-1
 176 817 l 1,2,-1
 86 817 l 1,3,-1
 184 950 l 1,4,-1
 306 950 l 1,5,-1
 404 817 l 1,6,-1
 314 817 l 1,0,-1
290 0 m 1,7,-1
 200 0 l 1,8,-1
 200 700 l 1,9,-1
 290 700 l 1,10,-1
 290 0 l 1,7,-1
EndSplineSet
EndChar

StartChar: Idieresis
Encoding: 207 207 126
Width: 268
Flags: W
LayerCount: 2
Fore
SplineSet
183 950 m 1,0,-1
 268 950 l 1,1,-1
 268 858 l 1,2,-1
 183 858 l 1,3,-1
 183 950 l 1,0,-1
8 950 m 1,4,-1
 93 950 l 1,5,-1
 93 858 l 1,6,-1
 8 858 l 1,7,-1
 8 950 l 1,4,-1
183 0 m 1,8,-1
 93 0 l 1,9,-1
 93 700 l 1,10,-1
 183 700 l 1,11,-1
 183 0 l 1,8,-1
EndSplineSet
EndChar

StartChar: Eth
Encoding: 208 208 127
Width: 716
Flags: W
LayerCount: 2
Fore
SplineSet
261 634 m 2,0,-1
 176 634 l 1,1,-1
 176 365 l 1,2,-1
 350 365 l 1,3,-1
 350 295 l 1,4,-1
 176 295 l 1,5,-1
 176 66 l 1,6,-1
 261 66 l 2,7,8
 334 66 334 66 390 85 c 128,-1,9
 446 104 446 104 478.5 133 c 128,-1,10
 511 162 511 162 531.5 201.5 c 128,-1,11
 552 241 552 241 559 276.5 c 128,-1,12
 566 312 566 312 566 350 c 128,-1,13
 566 388 566 388 559 423.5 c 128,-1,14
 552 459 552 459 531.5 498.5 c 128,-1,15
 511 538 511 538 478.5 567 c 128,-1,16
 446 596 446 596 390 615 c 128,-1,17
 334 634 334 634 261 634 c 2,0,-1
10 295 m 1,18,-1
 10 365 l 1,19,-1
 86 365 l 1,20,-1
 86 700 l 1,21,-1
 301 700 l 2,22,23
 459 700 459 700 557.5 598 c 128,-1,24
 656 496 656 496 656 350 c 128,-1,25
 656 204 656 204 557.5 102 c 128,-1,26
 459 0 459 0 301 0 c 2,27,-1
 86 0 l 1,28,-1
 86 295 l 1,29,-1
 10 295 l 1,18,-1
EndSplineSet
EndChar

StartChar: Ntilde
Encoding: 209 209 128
Width: 683
Flags: W
LayerCount: 2
Fore
SplineSet
275 950 m 0,0,1
 298 950 298 950 337 930.5 c 128,-1,2
 376 911 376 911 399 911 c 0,3,4
 411 911 411 911 417.5 920.5 c 128,-1,5
 424 930 424 930 425 940 c 2,6,-1
 426 950 l 1,7,-1
 492 950 l 1,8,9
 492 906 492 906 472 873.5 c 128,-1,10
 452 841 452 841 412 841 c 0,11,12
 387 841 387 841 330 865 c 0,13,14
 296 880 296 880 283 880 c 0,15,16
 274 880 274 880 266.5 870 c 128,-1,17
 259 860 259 860 256 850 c 2,18,-1
 253 841 l 1,19,-1
 190 841 l 1,20,21
 190 887 190 887 218 918.5 c 128,-1,22
 246 950 246 950 275 950 c 0,0,1
607 0 m 1,23,-1
 517 0 l 1,24,-1
 166 551 l 1,25,-1
 166 0 l 1,26,-1
 76 0 l 1,27,-1
 76 700 l 1,28,-1
 166 700 l 1,29,-1
 517 150 l 1,30,-1
 517 700 l 1,31,-1
 607 700 l 1,32,-1
 607 0 l 1,23,-1
EndSplineSet
EndChar

StartChar: Ograve
Encoding: 210 210 129
Width: 850
Flags: W
LayerCount: 2
Fore
SplineSet
399 817 m 1,0,-1
 281 950 l 1,1,-1
 391 950 l 1,2,-1
 489 817 l 1,3,-1
 399 817 l 1,0,-1
150 350 m 128,-1,5
 150 229 150 229 226 145 c 128,-1,6
 302 61 302 61 420 61 c 128,-1,7
 538 61 538 61 619 145.5 c 128,-1,8
 700 230 700 230 700 350 c 128,-1,9
 700 470 700 470 619 554.5 c 128,-1,10
 538 639 538 639 420 639 c 128,-1,11
 302 639 302 639 226 555 c 128,-1,4
 150 471 150 471 150 350 c 128,-1,5
60 350 m 128,-1,13
 60 502 60 502 162 608.5 c 128,-1,14
 264 715 264 715 420 715 c 128,-1,15
 576 715 576 715 683 608 c 128,-1,16
 790 501 790 501 790 350 c 128,-1,17
 790 199 790 199 683 92 c 128,-1,18
 576 -15 576 -15 420 -15 c 128,-1,19
 264 -15 264 -15 162 91.5 c 128,-1,12
 60 198 60 198 60 350 c 128,-1,13
EndSplineSet
EndChar

StartChar: Oacute
Encoding: 211 211 130
Width: 850
Flags: W
LayerCount: 2
Fore
SplineSet
569 950 m 1,0,-1
 451 817 l 1,1,-1
 361 817 l 1,2,-1
 459 950 l 1,3,-1
 569 950 l 1,0,-1
150 350 m 128,-1,5
 150 229 150 229 226 145 c 128,-1,6
 302 61 302 61 420 61 c 128,-1,7
 538 61 538 61 619 145.5 c 128,-1,8
 700 230 700 230 700 350 c 128,-1,9
 700 470 700 470 619 554.5 c 128,-1,10
 538 639 538 639 420 639 c 128,-1,11
 302 639 302 639 226 555 c 128,-1,4
 150 471 150 471 150 350 c 128,-1,5
60 350 m 128,-1,13
 60 502 60 502 162 608.5 c 128,-1,14
 264 715 264 715 420 715 c 128,-1,15
 576 715 576 715 683 608 c 128,-1,16
 790 501 790 501 790 350 c 128,-1,17
 790 199 790 199 683 92 c 128,-1,18
 576 -15 576 -15 420 -15 c 128,-1,19
 264 -15 264 -15 162 91.5 c 128,-1,12
 60 198 60 198 60 350 c 128,-1,13
EndSplineSet
EndChar

StartChar: Ocircumflex
Encoding: 212 212 131
Width: 850
Flags: W
LayerCount: 2
Fore
SplineSet
494 817 m 1,0,-1
 425 915 l 1,1,-1
 356 817 l 1,2,-1
 266 817 l 1,3,-1
 364 950 l 1,4,-1
 486 950 l 1,5,-1
 584 817 l 1,6,-1
 494 817 l 1,0,-1
150 350 m 128,-1,8
 150 229 150 229 226 145 c 128,-1,9
 302 61 302 61 420 61 c 128,-1,10
 538 61 538 61 619 145.5 c 128,-1,11
 700 230 700 230 700 350 c 128,-1,12
 700 470 700 470 619 554.5 c 128,-1,13
 538 639 538 639 420 639 c 128,-1,14
 302 639 302 639 226 555 c 128,-1,7
 150 471 150 471 150 350 c 128,-1,8
60 350 m 128,-1,16
 60 502 60 502 162 608.5 c 128,-1,17
 264 715 264 715 420 715 c 128,-1,18
 576 715 576 715 683 608 c 128,-1,19
 790 501 790 501 790 350 c 128,-1,20
 790 199 790 199 683 92 c 128,-1,21
 576 -15 576 -15 420 -15 c 128,-1,22
 264 -15 264 -15 162 91.5 c 128,-1,15
 60 198 60 198 60 350 c 128,-1,16
EndSplineSet
EndChar

StartChar: Otilde
Encoding: 213 213 132
Width: 850
Flags: W
LayerCount: 2
Fore
SplineSet
359 950 m 0,0,1
 382 950 382 950 421 930.5 c 128,-1,2
 460 911 460 911 483 911 c 0,3,4
 495 911 495 911 501.5 920.5 c 128,-1,5
 508 930 508 930 509 940 c 2,6,-1
 510 950 l 1,7,-1
 576 950 l 1,8,9
 576 906 576 906 556 873.5 c 128,-1,10
 536 841 536 841 496 841 c 0,11,12
 471 841 471 841 414 865 c 0,13,14
 380 880 380 880 367 880 c 0,15,16
 358 880 358 880 350.5 870 c 128,-1,17
 343 860 343 860 340 850 c 2,18,-1
 337 841 l 1,19,-1
 274 841 l 1,20,21
 274 887 274 887 302 918.5 c 128,-1,22
 330 950 330 950 359 950 c 0,0,1
150 350 m 128,-1,24
 150 229 150 229 226 145 c 128,-1,25
 302 61 302 61 420 61 c 128,-1,26
 538 61 538 61 619 145.5 c 128,-1,27
 700 230 700 230 700 350 c 128,-1,28
 700 470 700 470 619 554.5 c 128,-1,29
 538 639 538 639 420 639 c 128,-1,30
 302 639 302 639 226 555 c 128,-1,23
 150 471 150 471 150 350 c 128,-1,24
60 350 m 128,-1,32
 60 502 60 502 162 608.5 c 128,-1,33
 264 715 264 715 420 715 c 128,-1,34
 576 715 576 715 683 608 c 128,-1,35
 790 501 790 501 790 350 c 128,-1,36
 790 199 790 199 683 92 c 128,-1,37
 576 -15 576 -15 420 -15 c 128,-1,38
 264 -15 264 -15 162 91.5 c 128,-1,31
 60 198 60 198 60 350 c 128,-1,32
EndSplineSet
EndChar

StartChar: Odieresis
Encoding: 214 214 133
Width: 850
Flags: W
LayerCount: 2
Fore
SplineSet
470 950 m 1,0,-1
 555 950 l 1,1,-1
 555 858 l 1,2,-1
 470 858 l 1,3,-1
 470 950 l 1,0,-1
295 950 m 1,4,-1
 380 950 l 1,5,-1
 380 858 l 1,6,-1
 295 858 l 1,7,-1
 295 950 l 1,4,-1
150 350 m 128,-1,9
 150 229 150 229 226 145 c 128,-1,10
 302 61 302 61 420 61 c 128,-1,11
 538 61 538 61 619 145.5 c 128,-1,12
 700 230 700 230 700 350 c 128,-1,13
 700 470 700 470 619 554.5 c 128,-1,14
 538 639 538 639 420 639 c 128,-1,15
 302 639 302 639 226 555 c 128,-1,8
 150 471 150 471 150 350 c 128,-1,9
60 350 m 128,-1,17
 60 502 60 502 162 608.5 c 128,-1,18
 264 715 264 715 420 715 c 128,-1,19
 576 715 576 715 683 608 c 128,-1,20
 790 501 790 501 790 350 c 128,-1,21
 790 199 790 199 683 92 c 128,-1,22
 576 -15 576 -15 420 -15 c 128,-1,23
 264 -15 264 -15 162 91.5 c 128,-1,16
 60 198 60 198 60 350 c 128,-1,17
EndSplineSet
EndChar

StartChar: Oslash
Encoding: 216 216 134
Width: 850
Flags: W
LayerCount: 2
Fore
SplineSet
150 350 m 0,0,1
 150 227 150 227 225 146 c 2,2,-1
 238 132 l 1,3,-1
 540 611 l 1,4,5
 534 615 534 615 531 616 c 0,6,7
 479 639 479 639 420 639 c 0,8,9
 302 639 302 639 226 555 c 128,-1,10
 150 471 150 471 150 350 c 0,0,1
301 88 m 1,11,12
 360 61 360 61 420 61 c 0,13,14
 538 61 538 61 619 145.5 c 128,-1,15
 700 230 700 230 700 350 c 0,16,17
 700 471 700 471 619 554 c 1,18,-1
 603 569 l 1,19,-1
 301 88 l 1,11,12
60 350 m 128,-1,21
 60 502 60 502 162 608.5 c 128,-1,22
 264 715 264 715 420 715 c 128,-1,23
 576 715 576 715 683 608 c 128,-1,24
 790 501 790 501 790 350 c 128,-1,25
 790 199 790 199 683 92 c 128,-1,26
 576 -15 576 -15 420 -15 c 128,-1,27
 264 -15 264 -15 162 91.5 c 128,-1,20
 60 198 60 198 60 350 c 128,-1,21
EndSplineSet
EndChar

StartChar: Ugrave
Encoding: 217 217 135
Width: 742
Flags: W
LayerCount: 2
Fore
SplineSet
345 817 m 1,0,-1
 227 950 l 1,1,-1
 337 950 l 1,2,-1
 435 817 l 1,3,-1
 345 817 l 1,0,-1
376 -15 m 0,4,5
 342 -15 342 -15 306 -8.5 c 128,-1,6
 270 -2 270 -2 229.5 17 c 128,-1,7
 189 36 189 36 158 65.5 c 128,-1,8
 127 95 127 95 106.5 145.5 c 128,-1,9
 86 196 86 196 86 260 c 2,10,-1
 86 700 l 1,11,-1
 176 700 l 1,12,-1
 176 240 l 2,13,14
 176 196 176 196 196 161.5 c 128,-1,15
 216 127 216 127 247.5 107.5 c 128,-1,16
 279 88 279 88 312 78 c 128,-1,17
 345 68 345 68 376 68 c 128,-1,18
 407 68 407 68 440 78 c 128,-1,19
 473 88 473 88 504.5 107.5 c 128,-1,20
 536 127 536 127 556 161.5 c 128,-1,21
 576 196 576 196 576 240 c 2,22,-1
 576 700 l 1,23,-1
 666 700 l 1,24,-1
 666 260 l 2,25,26
 666 195 666 195 645.5 144.5 c 128,-1,27
 625 94 625 94 594 65 c 128,-1,28
 563 36 563 36 522 17 c 128,-1,29
 481 -2 481 -2 446 -8.5 c 128,-1,30
 411 -15 411 -15 376 -15 c 0,4,5
EndSplineSet
EndChar

StartChar: Uacute
Encoding: 218 218 136
Width: 742
Flags: W
LayerCount: 2
Fore
SplineSet
515 950 m 1,0,-1
 397 817 l 1,1,-1
 307 817 l 1,2,-1
 405 950 l 1,3,-1
 515 950 l 1,0,-1
376 -15 m 0,4,5
 342 -15 342 -15 306 -8.5 c 128,-1,6
 270 -2 270 -2 229.5 17 c 128,-1,7
 189 36 189 36 158 65.5 c 128,-1,8
 127 95 127 95 106.5 145.5 c 128,-1,9
 86 196 86 196 86 260 c 2,10,-1
 86 700 l 1,11,-1
 176 700 l 1,12,-1
 176 240 l 2,13,14
 176 196 176 196 196 161.5 c 128,-1,15
 216 127 216 127 247.5 107.5 c 128,-1,16
 279 88 279 88 312 78 c 128,-1,17
 345 68 345 68 376 68 c 128,-1,18
 407 68 407 68 440 78 c 128,-1,19
 473 88 473 88 504.5 107.5 c 128,-1,20
 536 127 536 127 556 161.5 c 128,-1,21
 576 196 576 196 576 240 c 2,22,-1
 576 700 l 1,23,-1
 666 700 l 1,24,-1
 666 260 l 2,25,26
 666 195 666 195 645.5 144.5 c 128,-1,27
 625 94 625 94 594 65 c 128,-1,28
 563 36 563 36 522 17 c 128,-1,29
 481 -2 481 -2 446 -8.5 c 128,-1,30
 411 -15 411 -15 376 -15 c 0,4,5
EndSplineSet
EndChar

StartChar: Ucircumflex
Encoding: 219 219 137
Width: 742
Flags: W
LayerCount: 2
Fore
SplineSet
440 817 m 1,0,-1
 371 915 l 1,1,-1
 302 817 l 1,2,-1
 212 817 l 1,3,-1
 310 950 l 1,4,-1
 432 950 l 1,5,-1
 530 817 l 1,6,-1
 440 817 l 1,0,-1
376 -15 m 0,7,8
 342 -15 342 -15 306 -8.5 c 128,-1,9
 270 -2 270 -2 229.5 17 c 128,-1,10
 189 36 189 36 158 65.5 c 128,-1,11
 127 95 127 95 106.5 145.5 c 128,-1,12
 86 196 86 196 86 260 c 2,13,-1
 86 700 l 1,14,-1
 176 700 l 1,15,-1
 176 240 l 2,16,17
 176 196 176 196 196 161.5 c 128,-1,18
 216 127 216 127 247.5 107.5 c 128,-1,19
 279 88 279 88 312 78 c 128,-1,20
 345 68 345 68 376 68 c 128,-1,21
 407 68 407 68 440 78 c 128,-1,22
 473 88 473 88 504.5 107.5 c 128,-1,23
 536 127 536 127 556 161.5 c 128,-1,24
 576 196 576 196 576 240 c 2,25,-1
 576 700 l 1,26,-1
 666 700 l 1,27,-1
 666 260 l 2,28,29
 666 195 666 195 645.5 144.5 c 128,-1,30
 625 94 625 94 594 65 c 128,-1,31
 563 36 563 36 522 17 c 128,-1,32
 481 -2 481 -2 446 -8.5 c 128,-1,33
 411 -15 411 -15 376 -15 c 0,7,8
EndSplineSet
EndChar

StartChar: Udieresis
Encoding: 220 220 138
Width: 742
Flags: W
LayerCount: 2
Fore
SplineSet
416 950 m 1,0,-1
 501 950 l 1,1,-1
 501 858 l 1,2,-1
 416 858 l 1,3,-1
 416 950 l 1,0,-1
241 950 m 1,4,-1
 326 950 l 1,5,-1
 326 858 l 1,6,-1
 241 858 l 1,7,-1
 241 950 l 1,4,-1
376 -15 m 0,8,9
 342 -15 342 -15 306 -8.5 c 128,-1,10
 270 -2 270 -2 229.5 17 c 128,-1,11
 189 36 189 36 158 65.5 c 128,-1,12
 127 95 127 95 106.5 145.5 c 128,-1,13
 86 196 86 196 86 260 c 2,14,-1
 86 700 l 1,15,-1
 176 700 l 1,16,-1
 176 240 l 2,17,18
 176 196 176 196 196 161.5 c 128,-1,19
 216 127 216 127 247.5 107.5 c 128,-1,20
 279 88 279 88 312 78 c 128,-1,21
 345 68 345 68 376 68 c 128,-1,22
 407 68 407 68 440 78 c 128,-1,23
 473 88 473 88 504.5 107.5 c 128,-1,24
 536 127 536 127 556 161.5 c 128,-1,25
 576 196 576 196 576 240 c 2,26,-1
 576 700 l 1,27,-1
 666 700 l 1,28,-1
 666 260 l 2,29,30
 666 195 666 195 645.5 144.5 c 128,-1,31
 625 94 625 94 594 65 c 128,-1,32
 563 36 563 36 522 17 c 128,-1,33
 481 -2 481 -2 446 -8.5 c 128,-1,34
 411 -15 411 -15 376 -15 c 0,8,9
EndSplineSet
EndChar

StartChar: Yacute
Encoding: 221 221 139
Width: 631
Flags: W
LayerCount: 2
Fore
SplineSet
449 950 m 1,0,-1
 331 817 l 1,1,-1
 241 817 l 1,2,-1
 339 950 l 1,3,-1
 449 950 l 1,0,-1
501 700 m 1,4,-1
 591 700 l 1,5,-1
 352 321 l 1,6,-1
 352 0 l 1,7,-1
 268 0 l 1,8,-1
 268 321 l 1,9,-1
 40 700 l 1,10,-1
 130 700 l 1,11,-1
 311 400 l 1,12,-1
 501 700 l 1,4,-1
EndSplineSet
EndChar

StartChar: Thorn
Encoding: 222 222 140
Width: 603
Flags: W
LayerCount: 2
Fore
SplineSet
176 216 m 1,0,-1
 332 216 l 2,1,2
 378 216 378 216 411.5 253 c 128,-1,3
 445 290 445 290 445 342 c 128,-1,4
 445 394 445 394 411.5 431.5 c 128,-1,5
 378 469 378 469 332 469 c 2,6,-1
 176 469 l 1,7,-1
 176 216 l 1,0,-1
176 140 m 1,8,-1
 176 0 l 1,9,-1
 86 0 l 1,10,-1
 86 700 l 1,11,-1
 176 700 l 1,12,-1
 176 545 l 1,13,-1
 332 545 l 2,14,15
 416 545 416 545 475.5 485.5 c 128,-1,16
 535 426 535 426 535 342 c 128,-1,17
 535 258 535 258 475.5 199 c 128,-1,18
 416 140 416 140 332 140 c 2,19,-1
 176 140 l 1,8,-1
EndSplineSet
EndChar

StartChar: agrave
Encoding: 224 224 141
Width: 537
Flags: W
LayerCount: 2
Fore
SplineSet
274 617 m 1,0,-1
 156 750 l 1,1,-1
 266 750 l 1,2,-1
 364 617 l 1,3,-1
 274 617 l 1,0,-1
229 57 m 0,4,5
 262 57 262 57 303 71.5 c 128,-1,6
 344 86 344 86 372 105 c 1,7,-1
 373 105 l 1,8,-1
 373 248 l 1,9,-1
 240 248 l 2,10,11
 141 248 141 248 141 158 c 0,12,13
 141 119 141 119 161.5 88 c 128,-1,14
 182 57 182 57 229 57 c 0,4,5
111 500 m 1,15,16
 306 515 306 515 322 515 c 0,17,18
 393 515 393 515 426 475 c 128,-1,19
 459 435 459 435 459 383 c 2,20,-1
 459 0 l 1,21,-1
 396 0 l 1,22,-1
 382 49 l 1,23,-1
 379 49 l 1,24,25
 292 -10 292 -10 212 -10 c 0,26,27
 136 -10 136 -10 95 41.5 c 128,-1,28
 54 93 54 93 54 158 c 0,29,30
 54 225 54 225 103 270 c 128,-1,31
 152 315 152 315 240 315 c 2,32,-1
 373 315 l 1,33,-1
 373 353 l 2,34,35
 373 399 373 399 355 418.5 c 128,-1,36
 337 438 337 438 288 438 c 0,37,38
 252 438 252 438 178 430 c 2,39,-1
 111 422 l 1,40,-1
 111 500 l 1,15,16
EndSplineSet
EndChar

StartChar: aacute
Encoding: 225 225 142
Width: 537
Flags: W
LayerCount: 2
Fore
SplineSet
415 750 m 1,0,-1
 297 617 l 1,1,-1
 207 617 l 1,2,-1
 305 750 l 1,3,-1
 415 750 l 1,0,-1
229 57 m 0,4,5
 262 57 262 57 303 71.5 c 128,-1,6
 344 86 344 86 372 105 c 1,7,-1
 373 105 l 1,8,-1
 373 248 l 1,9,-1
 240 248 l 2,10,11
 141 248 141 248 141 158 c 0,12,13
 141 119 141 119 161.5 88 c 128,-1,14
 182 57 182 57 229 57 c 0,4,5
322 515 m 0,15,16
 393 515 393 515 426 475 c 128,-1,17
 459 435 459 435 459 383 c 2,18,-1
 459 0 l 1,19,-1
 396 0 l 1,20,-1
 382 49 l 1,21,-1
 379 49 l 1,22,23
 292 -10 292 -10 212 -10 c 0,24,25
 136 -10 136 -10 95 41.5 c 128,-1,26
 54 93 54 93 54 158 c 0,27,28
 54 225 54 225 103 270 c 128,-1,29
 152 315 152 315 240 315 c 2,30,-1
 373 315 l 1,31,-1
 373 353 l 2,32,33
 373 399 373 399 355 418.5 c 128,-1,34
 337 438 337 438 288 438 c 0,35,36
 252 438 252 438 178 430 c 2,37,-1
 111 422 l 1,38,-1
 111 500 l 1,39,40
 306 515 306 515 322 515 c 0,15,16
EndSplineSet
EndChar

StartChar: acircumflex
Encoding: 226 226 143
Width: 537
Flags: W
LayerCount: 2
Fore
SplineSet
334 617 m 1,0,-1
 265 715 l 1,1,-1
 196 617 l 1,2,-1
 106 617 l 1,3,-1
 204 750 l 1,4,-1
 326 750 l 1,5,-1
 424 617 l 1,6,-1
 334 617 l 1,0,-1
229 57 m 0,7,8
 262 57 262 57 303 71.5 c 128,-1,9
 344 86 344 86 372 105 c 1,10,-1
 373 105 l 1,11,-1
 373 248 l 1,12,-1
 240 248 l 2,13,14
 141 248 141 248 141 158 c 0,15,16
 141 119 141 119 161.5 88 c 128,-1,17
 182 57 182 57 229 57 c 0,7,8
322 515 m 0,18,19
 393 515 393 515 426 475 c 128,-1,20
 459 435 459 435 459 383 c 2,21,-1
 459 0 l 1,22,-1
 396 0 l 1,23,-1
 382 49 l 1,24,-1
 379 49 l 1,25,26
 292 -10 292 -10 212 -10 c 0,27,28
 136 -10 136 -10 95 41.5 c 128,-1,29
 54 93 54 93 54 158 c 0,30,31
 54 225 54 225 103 270 c 128,-1,32
 152 315 152 315 240 315 c 2,33,-1
 373 315 l 1,34,-1
 373 353 l 2,35,36
 373 399 373 399 355 418.5 c 128,-1,37
 337 438 337 438 288 438 c 0,38,39
 252 438 252 438 178 430 c 2,40,-1
 111 422 l 1,41,-1
 111 500 l 1,42,43
 306 515 306 515 322 515 c 0,18,19
EndSplineSet
EndChar

StartChar: atilde
Encoding: 227 227 144
Width: 537
Flags: W
LayerCount: 2
Fore
SplineSet
199 750 m 0,0,1
 221 750 221 750 260.5 730.5 c 128,-1,2
 300 711 300 711 323 711 c 0,3,4
 335 711 335 711 341.5 720.5 c 128,-1,5
 348 730 348 730 349 740 c 2,6,-1
 350 750 l 1,7,-1
 416 750 l 1,8,9
 416 706 416 706 396 673.5 c 128,-1,10
 376 641 376 641 336 641 c 0,11,12
 311 641 311 641 254 665 c 0,13,14
 220 680 220 680 207 680 c 0,15,16
 198 680 198 680 190.5 670 c 128,-1,17
 183 660 183 660 180 650 c 2,18,-1
 177 641 l 1,19,-1
 114 641 l 1,20,21
 114 687 114 687 142 718.5 c 128,-1,22
 170 750 170 750 199 750 c 0,0,1
229 57 m 0,23,24
 262 57 262 57 303 71.5 c 128,-1,25
 344 86 344 86 372 105 c 1,26,-1
 373 105 l 1,27,-1
 373 248 l 1,28,-1
 240 248 l 2,29,30
 141 248 141 248 141 158 c 0,31,32
 141 119 141 119 161.5 88 c 128,-1,33
 182 57 182 57 229 57 c 0,23,24
322 515 m 0,34,35
 393 515 393 515 426 475 c 128,-1,36
 459 435 459 435 459 383 c 2,37,-1
 459 0 l 1,38,-1
 396 0 l 1,39,-1
 382 49 l 1,40,-1
 379 49 l 1,41,42
 292 -10 292 -10 212 -10 c 0,43,44
 136 -10 136 -10 95 41.5 c 128,-1,45
 54 93 54 93 54 158 c 0,46,47
 54 225 54 225 103 270 c 128,-1,48
 152 315 152 315 240 315 c 2,49,-1
 373 315 l 1,50,-1
 373 353 l 2,51,52
 373 399 373 399 355 418.5 c 128,-1,53
 337 438 337 438 288 438 c 0,54,55
 252 438 252 438 178 430 c 2,56,-1
 111 422 l 1,57,-1
 111 500 l 1,58,59
 306 515 306 515 322 515 c 0,34,35
EndSplineSet
EndChar

StartChar: adieresis
Encoding: 228 228 145
Width: 537
Flags: W
LayerCount: 2
Fore
SplineSet
310 750 m 1,0,-1
 395 750 l 1,1,-1
 395 658 l 1,2,-1
 310 658 l 1,3,-1
 310 750 l 1,0,-1
135 750 m 1,4,-1
 220 750 l 1,5,-1
 220 658 l 1,6,-1
 135 658 l 1,7,-1
 135 750 l 1,4,-1
229 57 m 0,8,9
 262 57 262 57 303 71.5 c 128,-1,10
 344 86 344 86 372 105 c 1,11,-1
 373 105 l 1,12,-1
 373 248 l 1,13,-1
 240 248 l 2,14,15
 141 248 141 248 141 158 c 0,16,17
 141 119 141 119 161.5 88 c 128,-1,18
 182 57 182 57 229 57 c 0,8,9
322 515 m 0,19,20
 393 515 393 515 426 475 c 128,-1,21
 459 435 459 435 459 383 c 2,22,-1
 459 0 l 1,23,-1
 396 0 l 1,24,-1
 382 49 l 1,25,-1
 379 49 l 1,26,27
 292 -10 292 -10 212 -10 c 0,28,29
 136 -10 136 -10 95 41.5 c 128,-1,30
 54 93 54 93 54 158 c 0,31,32
 54 225 54 225 103 270 c 128,-1,33
 152 315 152 315 240 315 c 2,34,-1
 373 315 l 1,35,-1
 373 353 l 2,36,37
 373 399 373 399 355 418.5 c 128,-1,38
 337 438 337 438 288 438 c 0,39,40
 252 438 252 438 178 430 c 2,41,-1
 111 422 l 1,42,-1
 111 500 l 1,43,44
 306 515 306 515 322 515 c 0,19,20
EndSplineSet
EndChar

StartChar: aring
Encoding: 229 229 146
Width: 537
Flags: W
LayerCount: 2
Fore
SplineSet
243 668 m 128,-1,1
 243 651 243 651 255.5 638.5 c 128,-1,2
 268 626 268 626 285 626 c 128,-1,3
 302 626 302 626 314.5 638.5 c 128,-1,4
 327 651 327 651 327 668 c 128,-1,5
 327 685 327 685 314.5 697.5 c 128,-1,6
 302 710 302 710 285 710 c 128,-1,7
 268 710 268 710 255.5 697.5 c 128,-1,0
 243 685 243 685 243 668 c 128,-1,1
203 668 m 128,-1,9
 203 702 203 702 227 726 c 128,-1,10
 251 750 251 750 285 750 c 128,-1,11
 319 750 319 750 343 726 c 128,-1,12
 367 702 367 702 367 668 c 128,-1,13
 367 634 367 634 343 610 c 128,-1,14
 319 586 319 586 285 586 c 128,-1,15
 251 586 251 586 227 610 c 128,-1,8
 203 634 203 634 203 668 c 128,-1,9
229 57 m 0,16,17
 262 57 262 57 303 71.5 c 128,-1,18
 344 86 344 86 372 105 c 1,19,-1
 373 105 l 1,20,-1
 373 248 l 1,21,-1
 240 248 l 2,22,23
 141 248 141 248 141 158 c 0,24,25
 141 119 141 119 161.5 88 c 128,-1,26
 182 57 182 57 229 57 c 0,16,17
111 500 m 1,27,28
 306 515 306 515 322 515 c 0,29,30
 393 515 393 515 426 475 c 128,-1,31
 459 435 459 435 459 383 c 2,32,-1
 459 0 l 1,33,-1
 396 0 l 1,34,-1
 382 49 l 1,35,-1
 379 49 l 1,36,37
 292 -10 292 -10 212 -10 c 0,38,39
 136 -10 136 -10 95 41.5 c 128,-1,40
 54 93 54 93 54 158 c 0,41,42
 54 225 54 225 103 270 c 128,-1,43
 152 315 152 315 240 315 c 2,44,-1
 373 315 l 1,45,-1
 373 353 l 2,46,47
 373 399 373 399 355 418.5 c 128,-1,48
 337 438 337 438 288 438 c 0,49,50
 252 438 252 438 178 430 c 2,51,-1
 111 422 l 1,52,-1
 111 500 l 1,27,28
EndSplineSet
EndChar

StartChar: ae
Encoding: 230 230 147
Width: 882
Flags: W
LayerCount: 2
Fore
SplineSet
462 286 m 1,0,-1
 732 286 l 1,1,2
 725 353 725 353 695 396 c 128,-1,3
 665 439 665 439 607 439 c 0,4,5
 550 439 550 439 510 397 c 128,-1,6
 470 355 470 355 462 286 c 1,0,-1
229 57 m 0,7,8
 262 57 262 57 303 71.5 c 128,-1,9
 344 86 344 86 372 105 c 1,10,-1
 373 105 l 1,11,-1
 373 248 l 1,12,-1
 240 248 l 2,13,14
 141 248 141 248 141 158 c 0,15,16
 141 119 141 119 161.5 88 c 128,-1,17
 182 57 182 57 229 57 c 0,7,8
639 -15 m 0,18,19
 527 -15 527 -15 459 42 c 1,20,-1
 459 0 l 1,21,-1
 396 0 l 1,22,-1
 382 49 l 1,23,-1
 379 49 l 1,24,25
 292 -10 292 -10 212 -10 c 0,26,27
 136 -10 136 -10 95 41.5 c 128,-1,28
 54 93 54 93 54 158 c 0,29,30
 54 225 54 225 103 270 c 128,-1,31
 152 315 152 315 240 315 c 2,32,-1
 373 315 l 1,33,-1
 373 353 l 2,34,35
 373 399 373 399 355 418.5 c 128,-1,36
 337 438 337 438 288 438 c 0,37,38
 252 438 252 438 178 430 c 2,39,-1
 111 422 l 1,40,-1
 111 500 l 1,41,42
 306 515 306 515 322 515 c 0,43,44
 410 515 410 515 444 448 c 1,45,46
 508 515 508 515 609 515 c 0,47,48
 818 515 818 515 818 220 c 1,49,-1
 459 220 l 1,50,51
 464 158 464 158 504.5 109.5 c 128,-1,52
 545 61 545 61 628 61 c 0,53,54
 724 61 724 61 793 93 c 1,55,-1
 793 14 l 1,56,57
 718 -15 718 -15 639 -15 c 0,18,19
EndSplineSet
EndChar

StartChar: ccedilla
Encoding: 231 231 148
Width: 458
Flags: W
LayerCount: 2
Fore
SplineSet
105 250 m 128,-1,1
 105 172 105 172 157.5 116.5 c 128,-1,2
 210 61 210 61 286 61 c 0,3,4
 354 61 354 61 421 76 c 1,5,-1
 421 0 l 1,6,7
 354 -15 354 -15 286 -15 c 0,8,9
 274 -15 274 -15 268 -14 c 1,10,-1
 262 -42 l 1,11,12
 336 -55 336 -55 336 -117 c 0,13,14
 336 -162 336 -162 296.5 -187.5 c 128,-1,15
 257 -213 257 -213 196 -213 c 0,16,17
 172 -213 172 -213 142 -208 c 1,18,-1
 154 -151 l 1,19,20
 181 -155 181 -155 198 -155 c 0,21,22
 260 -155 260 -155 260 -117 c 0,23,24
 260 -75 260 -75 178 -75 c 1,25,-1
 194 1 l 1,26,-1
 184 6 l 1,27,28
 111 38 111 38 67 103.5 c 128,-1,29
 23 169 23 169 23 250 c 0,30,31
 23 360 23 360 100 437.5 c 128,-1,32
 177 515 177 515 286 515 c 0,33,34
 354 515 354 515 421 500 c 1,35,-1
 421 424 l 1,36,37
 354 439 354 439 286 439 c 0,38,39
 210 439 210 439 157.5 383.5 c 128,-1,0
 105 328 105 328 105 250 c 128,-1,1
EndSplineSet
EndChar

StartChar: egrave
Encoding: 232 232 149
Width: 547
Flags: W
LayerCount: 2
Fore
SplineSet
247 617 m 1,0,-1
 129 750 l 1,1,-1
 239 750 l 1,2,-1
 337 617 l 1,3,-1
 247 617 l 1,0,-1
140 286 m 1,4,-1
 410 286 l 1,5,6
 403 353 403 353 373 396 c 128,-1,7
 343 439 343 439 285 439 c 0,8,9
 228 439 228 439 188 397 c 128,-1,10
 148 355 148 355 140 286 c 1,4,-1
54 252 m 0,11,12
 54 372 54 372 118 443.5 c 128,-1,13
 182 515 182 515 287 515 c 0,14,15
 496 515 496 515 496 220 c 1,16,-1
 137 220 l 1,17,18
 142 158 142 158 182.5 109.5 c 128,-1,19
 223 61 223 61 306 61 c 0,20,21
 402 61 402 61 471 93 c 1,22,-1
 471 14 l 1,23,24
 396 -15 396 -15 317 -15 c 0,25,26
 248 -15 248 -15 196.5 6.5 c 128,-1,27
 145 28 145 28 114.5 65.5 c 128,-1,28
 84 103 84 103 69 150 c 128,-1,29
 54 197 54 197 54 252 c 0,11,12
EndSplineSet
EndChar

StartChar: eacute
Encoding: 233 233 150
Width: 547
Flags: W
LayerCount: 2
Fore
SplineSet
427 750 m 1,0,-1
 309 617 l 1,1,-1
 219 617 l 1,2,-1
 317 750 l 1,3,-1
 427 750 l 1,0,-1
410 286 m 1,4,5
 403 353 403 353 373 396 c 128,-1,6
 343 439 343 439 285 439 c 0,7,8
 228 439 228 439 188 397 c 128,-1,9
 148 355 148 355 140 286 c 1,10,-1
 410 286 l 1,4,5
54 252 m 0,11,12
 54 372 54 372 118 443.5 c 128,-1,13
 182 515 182 515 287 515 c 0,14,15
 496 515 496 515 496 220 c 1,16,-1
 137 220 l 1,17,18
 142 158 142 158 182.5 109.5 c 128,-1,19
 223 61 223 61 306 61 c 0,20,21
 402 61 402 61 471 93 c 1,22,-1
 471 14 l 1,23,24
 396 -15 396 -15 317 -15 c 0,25,26
 248 -15 248 -15 196.5 6.5 c 128,-1,27
 145 28 145 28 114.5 65.5 c 128,-1,28
 84 103 84 103 69 150 c 128,-1,29
 54 197 54 197 54 252 c 0,11,12
EndSplineSet
EndChar

StartChar: ecircumflex
Encoding: 234 234 151
Width: 547
Flags: W
LayerCount: 2
Fore
SplineSet
345 617 m 1,0,-1
 276 715 l 1,1,-1
 207 617 l 1,2,-1
 117 617 l 1,3,-1
 215 750 l 1,4,-1
 337 750 l 1,5,-1
 435 617 l 1,6,-1
 345 617 l 1,0,-1
410 286 m 1,7,8
 403 353 403 353 373 396 c 128,-1,9
 343 439 343 439 285 439 c 0,10,11
 228 439 228 439 188 397 c 128,-1,12
 148 355 148 355 140 286 c 1,13,-1
 410 286 l 1,7,8
54 252 m 0,14,15
 54 372 54 372 118 443.5 c 128,-1,16
 182 515 182 515 287 515 c 0,17,18
 496 515 496 515 496 220 c 1,19,-1
 137 220 l 1,20,21
 142 158 142 158 182.5 109.5 c 128,-1,22
 223 61 223 61 306 61 c 0,23,24
 402 61 402 61 471 93 c 1,25,-1
 471 14 l 1,26,27
 396 -15 396 -15 317 -15 c 0,28,29
 248 -15 248 -15 196.5 6.5 c 128,-1,30
 145 28 145 28 114.5 65.5 c 128,-1,31
 84 103 84 103 69 150 c 128,-1,32
 54 197 54 197 54 252 c 0,14,15
EndSplineSet
EndChar

StartChar: edieresis
Encoding: 235 235 152
Width: 547
Flags: W
LayerCount: 2
Fore
SplineSet
321 750 m 1,0,-1
 406 750 l 1,1,-1
 406 658 l 1,2,-1
 321 658 l 1,3,-1
 321 750 l 1,0,-1
146 750 m 1,4,-1
 231 750 l 1,5,-1
 231 658 l 1,6,-1
 146 658 l 1,7,-1
 146 750 l 1,4,-1
410 286 m 1,8,9
 403 353 403 353 373 396 c 128,-1,10
 343 439 343 439 285 439 c 0,11,12
 228 439 228 439 188 397 c 128,-1,13
 148 355 148 355 140 286 c 1,14,-1
 410 286 l 1,8,9
54 252 m 0,15,16
 54 372 54 372 118 443.5 c 128,-1,17
 182 515 182 515 287 515 c 0,18,19
 496 515 496 515 496 220 c 1,20,-1
 137 220 l 1,21,22
 142 158 142 158 182.5 109.5 c 128,-1,23
 223 61 223 61 306 61 c 0,24,25
 402 61 402 61 471 93 c 1,26,-1
 471 14 l 1,27,28
 396 -15 396 -15 317 -15 c 0,29,30
 248 -15 248 -15 196.5 6.5 c 128,-1,31
 145 28 145 28 114.5 65.5 c 128,-1,32
 84 103 84 103 69 150 c 128,-1,33
 54 197 54 197 54 252 c 0,15,16
EndSplineSet
EndChar

StartChar: igrave
Encoding: 236 236 153
Width: 251
Flags: W
LayerCount: 2
Fore
SplineSet
121 617 m 1,0,-1
 3 750 l 1,1,-1
 113 750 l 1,2,-1
 211 617 l 1,3,-1
 121 617 l 1,0,-1
85 500 m 1,4,-1
 170 500 l 1,5,-1
 170 0 l 1,6,-1
 85 0 l 1,7,-1
 85 500 l 1,4,-1
EndSplineSet
EndChar

StartChar: iacute
Encoding: 237 237 154
Width: 251
Flags: W
LayerCount: 2
Fore
SplineSet
254 750 m 1,0,-1
 136 617 l 1,1,-1
 46 617 l 1,2,-1
 144 750 l 1,3,-1
 254 750 l 1,0,-1
88 500 m 1,4,-1
 173 500 l 1,5,-1
 173 0 l 1,6,-1
 88 0 l 1,7,-1
 88 500 l 1,4,-1
EndSplineSet
EndChar

StartChar: icircumflex
Encoding: 238 238 155
Width: 251
Flags: W
LayerCount: 2
Fore
SplineSet
203 617 m 1,0,-1
 134 715 l 1,1,-1
 65 617 l 1,2,-1
 -25 617 l 1,3,-1
 73 750 l 1,4,-1
 195 750 l 1,5,-1
 293 617 l 1,6,-1
 203 617 l 1,0,-1
92 500 m 1,7,-1
 177 500 l 1,8,-1
 177 0 l 1,9,-1
 92 0 l 1,10,-1
 92 500 l 1,7,-1
EndSplineSet
EndChar

StartChar: idieresis
Encoding: 239 239 156
Width: 251
Flags: W
LayerCount: 2
Fore
SplineSet
181 750 m 1,0,-1
 266 750 l 1,1,-1
 266 658 l 1,2,-1
 181 658 l 1,3,-1
 181 750 l 1,0,-1
6 750 m 1,4,-1
 91 750 l 1,5,-1
 91 658 l 1,6,-1
 6 658 l 1,7,-1
 6 750 l 1,4,-1
94 500 m 1,8,-1
 179 500 l 1,9,-1
 179 0 l 1,10,-1
 94 0 l 1,11,-1
 94 500 l 1,8,-1
EndSplineSet
EndChar

StartChar: eth
Encoding: 240 240 157
Width: 589
Flags: W
LayerCount: 2
Fore
SplineSet
120 250 m 128,-1,1
 120 172 120 172 170 116.5 c 128,-1,2
 220 61 220 61 290 61 c 128,-1,3
 360 61 360 61 410 116.5 c 128,-1,4
 460 172 460 172 460 250 c 2,5,-1
 460 258 l 1,6,7
 456 333 456 333 407.5 386 c 128,-1,8
 359 439 359 439 290 439 c 0,9,10
 220 439 220 439 170 383.5 c 128,-1,0
 120 328 120 328 120 250 c 128,-1,1
143 590 m 1,11,-1
 236 642 l 1,12,13
 206 655 206 655 157 671 c 1,14,-1
 209 725 l 1,15,16
 265 705 265 705 310 683 c 1,17,-1
 385 725 l 1,18,-1
 415 671 l 1,19,-1
 372 647 l 1,20,21
 540 524 540 524 540 250 c 0,22,23
 540 140 540 140 467 62.5 c 128,-1,24
 394 -15 394 -15 290 -15 c 128,-1,25
 186 -15 186 -15 113 62.5 c 128,-1,26
 40 140 40 140 40 250 c 128,-1,27
 40 360 40 360 113 437.5 c 128,-1,28
 186 515 186 515 290 515 c 0,29,30
 363 515 363 515 422 474 c 1,31,32
 386 558 386 558 302 608 c 1,33,-1
 173 536 l 1,34,-1
 143 590 l 1,11,-1
EndSplineSet
EndChar

StartChar: ntilde
Encoding: 241 241 158
Width: 496
Flags: W
LayerCount: 2
Fore
SplineSet
179 750 m 0,0,1
 202 750 202 750 241 730.5 c 128,-1,2
 280 711 280 711 303 711 c 0,3,4
 315 711 315 711 321.5 720.5 c 128,-1,5
 328 730 328 730 329 740 c 2,6,-1
 330 750 l 1,7,-1
 396 750 l 1,8,9
 396 706 396 706 376 673.5 c 128,-1,10
 356 641 356 641 316 641 c 0,11,12
 291 641 291 641 234 665 c 0,13,14
 200 680 200 680 187 680 c 0,15,16
 178 680 178 680 170.5 670 c 128,-1,17
 163 660 163 660 160 650 c 2,18,-1
 157 641 l 1,19,-1
 94 641 l 1,20,21
 94 687 94 687 122 718.5 c 128,-1,22
 150 750 150 750 179 750 c 0,0,1
99 500 m 1,23,-1
 112 462 l 1,24,25
 194 515 194 515 274 515 c 0,26,27
 357 515 357 515 408.5 475.5 c 128,-1,28
 460 436 460 436 460 355 c 2,29,-1
 460 0 l 1,30,-1
 375 0 l 1,31,-1
 375 355 l 2,32,33
 375 438 375 438 274 438 c 0,34,35
 196 438 196 438 122 386 c 1,36,-1
 122 0 l 1,37,-1
 39 0 l 1,38,-1
 39 500 l 1,39,-1
 99 500 l 1,23,-1
EndSplineSet
EndChar

StartChar: ograve
Encoding: 242 242 159
Width: 583
Flags: W
LayerCount: 2
Fore
SplineSet
300 617 m 1,0,-1
 182 750 l 1,1,-1
 292 750 l 1,2,-1
 390 617 l 1,3,-1
 300 617 l 1,0,-1
108 250 m 128,-1,5
 108 170 108 170 158 115.5 c 128,-1,6
 208 61 208 61 291 61 c 0,7,8
 373 61 373 61 423.5 115.5 c 128,-1,9
 474 170 474 170 474 250 c 128,-1,10
 474 330 474 330 423.5 384.5 c 128,-1,11
 373 439 373 439 291 439 c 0,12,13
 208 439 208 439 158 384.5 c 128,-1,4
 108 330 108 330 108 250 c 128,-1,5
27 250 m 128,-1,15
 27 362 27 362 101 438.5 c 128,-1,16
 175 515 175 515 291 515 c 0,17,18
 406 515 406 515 481 438 c 128,-1,19
 556 361 556 361 556 250 c 128,-1,20
 556 139 556 139 481 62 c 128,-1,21
 406 -15 406 -15 291 -15 c 0,22,23
 175 -15 175 -15 101 61.5 c 128,-1,14
 27 138 27 138 27 250 c 128,-1,15
EndSplineSet
EndChar

StartChar: oacute
Encoding: 243 243 160
Width: 583
Flags: W
LayerCount: 2
Fore
SplineSet
400 750 m 1,0,-1
 282 617 l 1,1,-1
 192 617 l 1,2,-1
 290 750 l 1,3,-1
 400 750 l 1,0,-1
108 250 m 128,-1,5
 108 170 108 170 158 115.5 c 128,-1,6
 208 61 208 61 291 61 c 0,7,8
 373 61 373 61 423.5 115.5 c 128,-1,9
 474 170 474 170 474 250 c 128,-1,10
 474 330 474 330 423.5 384.5 c 128,-1,11
 373 439 373 439 291 439 c 0,12,13
 208 439 208 439 158 384.5 c 128,-1,4
 108 330 108 330 108 250 c 128,-1,5
27 250 m 128,-1,15
 27 362 27 362 101 438.5 c 128,-1,16
 175 515 175 515 291 515 c 0,17,18
 406 515 406 515 481 438 c 128,-1,19
 556 361 556 361 556 250 c 128,-1,20
 556 139 556 139 481 62 c 128,-1,21
 406 -15 406 -15 291 -15 c 0,22,23
 175 -15 175 -15 101 61.5 c 128,-1,14
 27 138 27 138 27 250 c 128,-1,15
EndSplineSet
EndChar

StartChar: ocircumflex
Encoding: 244 244 161
Width: 637
Flags: W
LayerCount: 2
Fore
SplineSet
387 617 m 1,0,-1
 318 715 l 1,1,-1
 249 617 l 1,2,-1
 159 617 l 1,3,-1
 257 750 l 1,4,-1
 379 750 l 1,5,-1
 477 617 l 1,6,-1
 387 617 l 1,0,-1
135 250 m 128,-1,8
 135 170 135 170 185 115.5 c 128,-1,9
 235 61 235 61 318 61 c 0,10,11
 400 61 400 61 450.5 115.5 c 128,-1,12
 501 170 501 170 501 250 c 128,-1,13
 501 330 501 330 450.5 384.5 c 128,-1,14
 400 439 400 439 318 439 c 0,15,16
 235 439 235 439 185 384.5 c 128,-1,7
 135 330 135 330 135 250 c 128,-1,8
54 250 m 128,-1,18
 54 362 54 362 128 438.5 c 128,-1,19
 202 515 202 515 318 515 c 0,20,21
 433 515 433 515 508 438 c 128,-1,22
 583 361 583 361 583 250 c 128,-1,23
 583 139 583 139 508 62 c 128,-1,24
 433 -15 433 -15 318 -15 c 0,25,26
 202 -15 202 -15 128 61.5 c 128,-1,17
 54 138 54 138 54 250 c 128,-1,18
EndSplineSet
EndChar

StartChar: otilde
Encoding: 245 245 162
Width: 637
Flags: W
LayerCount: 2
Fore
SplineSet
252 750 m 0,0,1
 274 750 274 750 314 730.5 c 128,-1,2
 354 711 354 711 376 711 c 0,3,4
 388 711 388 711 394.5 720.5 c 128,-1,5
 401 730 401 730 402 740 c 2,6,-1
 403 750 l 1,7,-1
 469 750 l 1,8,9
 469 706 469 706 449 673.5 c 128,-1,10
 429 641 429 641 389 641 c 0,11,12
 364 641 364 641 307 665 c 0,13,14
 273 680 273 680 260 680 c 0,15,16
 251 680 251 680 243.5 670 c 128,-1,17
 236 660 236 660 233 650 c 2,18,-1
 230 641 l 1,19,-1
 167 641 l 1,20,21
 167 687 167 687 195 718.5 c 128,-1,22
 223 750 223 750 252 750 c 0,0,1
135 250 m 128,-1,24
 135 170 135 170 185 115.5 c 128,-1,25
 235 61 235 61 318 61 c 0,26,27
 400 61 400 61 450.5 115.5 c 128,-1,28
 501 170 501 170 501 250 c 128,-1,29
 501 330 501 330 450.5 384.5 c 128,-1,30
 400 439 400 439 318 439 c 0,31,32
 235 439 235 439 185 384.5 c 128,-1,23
 135 330 135 330 135 250 c 128,-1,24
54 250 m 128,-1,34
 54 362 54 362 128 438.5 c 128,-1,35
 202 515 202 515 318 515 c 0,36,37
 433 515 433 515 508 438 c 128,-1,38
 583 361 583 361 583 250 c 128,-1,39
 583 139 583 139 508 62 c 128,-1,40
 433 -15 433 -15 318 -15 c 0,41,42
 202 -15 202 -15 128 61.5 c 128,-1,33
 54 138 54 138 54 250 c 128,-1,34
EndSplineSet
EndChar

StartChar: odieresis
Encoding: 246 246 163
Width: 637
Flags: W
LayerCount: 2
Fore
SplineSet
363 750 m 1,0,-1
 448 750 l 1,1,-1
 448 658 l 1,2,-1
 363 658 l 1,3,-1
 363 750 l 1,0,-1
188 750 m 1,4,-1
 273 750 l 1,5,-1
 273 658 l 1,6,-1
 188 658 l 1,7,-1
 188 750 l 1,4,-1
135 250 m 128,-1,9
 135 170 135 170 185 115.5 c 128,-1,10
 235 61 235 61 318 61 c 0,11,12
 400 61 400 61 450.5 115.5 c 128,-1,13
 501 170 501 170 501 250 c 128,-1,14
 501 330 501 330 450.5 384.5 c 128,-1,15
 400 439 400 439 318 439 c 0,16,17
 235 439 235 439 185 384.5 c 128,-1,8
 135 330 135 330 135 250 c 128,-1,9
54 250 m 128,-1,19
 54 362 54 362 128 438.5 c 128,-1,20
 202 515 202 515 318 515 c 0,21,22
 433 515 433 515 508 438 c 128,-1,23
 583 361 583 361 583 250 c 128,-1,24
 583 139 583 139 508 62 c 128,-1,25
 433 -15 433 -15 318 -15 c 0,26,27
 202 -15 202 -15 128 61.5 c 128,-1,18
 54 138 54 138 54 250 c 128,-1,19
EndSplineSet
EndChar

StartChar: oslash
Encoding: 248 248 164
Width: 637
Flags: W
LayerCount: 2
Fore
SplineSet
318 61 m 0,0,1
 400 61 400 61 450.5 115.5 c 128,-1,2
 501 170 501 170 501 250 c 0,3,4
 501 331 501 331 451 383 c 1,5,-1
 445 390 l 1,6,-1
 262 68 l 1,7,8
 286 61 286 61 318 61 c 0,0,1
135 250 m 128,-1,10
 135 170 135 170 184 116 c 2,11,-1
 193 106 l 1,12,-1
 378 430 l 1,13,14
 350 439 350 439 318 439 c 0,15,16
 235 439 235 439 185 384.5 c 128,-1,9
 135 330 135 330 135 250 c 128,-1,10
54 250 m 128,-1,18
 54 362 54 362 128 438.5 c 128,-1,19
 202 515 202 515 318 515 c 0,20,21
 433 515 433 515 508 438 c 128,-1,22
 583 361 583 361 583 250 c 128,-1,23
 583 139 583 139 508 62 c 128,-1,24
 433 -15 433 -15 318 -15 c 0,25,26
 202 -15 202 -15 128 61.5 c 128,-1,17
 54 138 54 138 54 250 c 128,-1,18
EndSplineSet
EndChar

StartChar: ugrave
Encoding: 249 249 165
Width: 569
Flags: W
LayerCount: 2
Fore
SplineSet
268 617 m 1,0,-1
 150 750 l 1,1,-1
 260 750 l 1,2,-1
 358 617 l 1,3,-1
 268 617 l 1,0,-1
284 -15 m 128,-1,5
 204 -15 204 -15 141 29.5 c 128,-1,6
 78 74 78 74 78 153 c 2,7,-1
 78 500 l 1,8,-1
 161 500 l 1,9,-1
 161 153 l 2,10,11
 161 111 161 111 198 88 c 128,-1,12
 235 65 235 65 284 65 c 0,13,14
 334 65 334 65 370.5 88 c 128,-1,15
 407 111 407 111 407 153 c 2,16,-1
 407 500 l 1,17,-1
 491 500 l 1,18,-1
 491 153 l 2,19,20
 491 75 491 75 427.5 30 c 128,-1,4
 364 -15 364 -15 284 -15 c 128,-1,5
EndSplineSet
EndChar

StartChar: uacute
Encoding: 250 250 166
Width: 569
Flags: W
LayerCount: 2
Fore
SplineSet
418 750 m 1,0,-1
 300 617 l 1,1,-1
 210 617 l 1,2,-1
 308 750 l 1,3,-1
 418 750 l 1,0,-1
284 -15 m 128,-1,5
 204 -15 204 -15 141 29.5 c 128,-1,6
 78 74 78 74 78 153 c 2,7,-1
 78 500 l 1,8,-1
 161 500 l 1,9,-1
 161 153 l 2,10,11
 161 111 161 111 198 88 c 128,-1,12
 235 65 235 65 284 65 c 0,13,14
 334 65 334 65 370.5 88 c 128,-1,15
 407 111 407 111 407 153 c 2,16,-1
 407 500 l 1,17,-1
 491 500 l 1,18,-1
 491 153 l 2,19,20
 491 75 491 75 427.5 30 c 128,-1,4
 364 -15 364 -15 284 -15 c 128,-1,5
EndSplineSet
EndChar

StartChar: ucircumflex
Encoding: 251 251 167
Width: 569
Flags: W
LayerCount: 2
Fore
SplineSet
353 617 m 1,0,-1
 284 715 l 1,1,-1
 215 617 l 1,2,-1
 125 617 l 1,3,-1
 223 750 l 1,4,-1
 345 750 l 1,5,-1
 443 617 l 1,6,-1
 353 617 l 1,0,-1
284 -15 m 128,-1,8
 204 -15 204 -15 141 29.5 c 128,-1,9
 78 74 78 74 78 153 c 2,10,-1
 78 500 l 1,11,-1
 161 500 l 1,12,-1
 161 153 l 2,13,14
 161 111 161 111 198 88 c 128,-1,15
 235 65 235 65 284 65 c 0,16,17
 334 65 334 65 370.5 88 c 128,-1,18
 407 111 407 111 407 153 c 2,19,-1
 407 500 l 1,20,-1
 491 500 l 1,21,-1
 491 153 l 2,22,23
 491 75 491 75 427.5 30 c 128,-1,7
 364 -15 364 -15 284 -15 c 128,-1,8
EndSplineSet
EndChar

StartChar: udieresis
Encoding: 252 252 168
Width: 569
Flags: W
LayerCount: 2
Fore
SplineSet
329 750 m 1,0,-1
 414 750 l 1,1,-1
 414 658 l 1,2,-1
 329 658 l 1,3,-1
 329 750 l 1,0,-1
154 750 m 1,4,-1
 239 750 l 1,5,-1
 239 658 l 1,6,-1
 154 658 l 1,7,-1
 154 750 l 1,4,-1
284 -15 m 128,-1,9
 204 -15 204 -15 141 29.5 c 128,-1,10
 78 74 78 74 78 153 c 2,11,-1
 78 500 l 1,12,-1
 161 500 l 1,13,-1
 161 153 l 2,14,15
 161 111 161 111 198 88 c 128,-1,16
 235 65 235 65 284 65 c 0,17,18
 334 65 334 65 370.5 88 c 128,-1,19
 407 111 407 111 407 153 c 2,20,-1
 407 500 l 1,21,-1
 491 500 l 1,22,-1
 491 153 l 2,23,24
 491 75 491 75 427.5 30 c 128,-1,8
 364 -15 364 -15 284 -15 c 128,-1,9
EndSplineSet
EndChar

StartChar: yacute
Encoding: 253 253 169
Width: 558
Flags: W
LayerCount: 2
Fore
SplineSet
383 750 m 1,0,-1
 265 617 l 1,1,-1
 175 617 l 1,2,-1
 273 750 l 1,3,-1
 383 750 l 1,0,-1
141 500 m 1,4,-1
 278 134 l 1,5,-1
 418 500 l 1,6,-1
 512 500 l 1,7,-1
 224 -250 l 1,8,-1
 130 -250 l 1,9,-1
 237 25 l 1,10,11
 81 413 81 413 46 500 c 1,12,-1
 141 500 l 1,4,-1
EndSplineSet
EndChar

StartChar: thorn
Encoding: 254 254 170
Width: 483
Flags: W
LayerCount: 2
Fore
SplineSet
165 173 m 1,0,-1
 269 173 l 2,1,2
 302 173 302 173 326 197.5 c 128,-1,3
 350 222 350 222 350 258 c 0,4,5
 350 293 350 293 326 318.5 c 128,-1,6
 302 344 302 344 269 344 c 2,7,-1
 165 344 l 1,8,-1
 165 173 l 1,0,-1
80 500 m 1,9,-1
 165 500 l 1,10,-1
 165 420 l 1,11,-1
 269 420 l 2,12,13
 335 420 335 420 382.5 372 c 128,-1,14
 430 324 430 324 430 258 c 0,15,16
 430 191 430 191 383 144 c 128,-1,17
 336 97 336 97 269 97 c 2,18,-1
 165 97 l 1,19,-1
 165 0 l 1,20,-1
 80 0 l 1,21,-1
 80 500 l 1,9,-1
EndSplineSet
EndChar

StartChar: ydieresis
Encoding: 255 255 171
Width: 558
Flags: W
LayerCount: 2
Fore
SplineSet
324 750 m 1,0,-1
 409 750 l 1,1,-1
 409 658 l 1,2,-1
 324 658 l 1,3,-1
 324 750 l 1,0,-1
149 750 m 1,4,-1
 234 750 l 1,5,-1
 234 658 l 1,6,-1
 149 658 l 1,7,-1
 149 750 l 1,4,-1
141 500 m 1,8,-1
 278 134 l 1,9,-1
 418 500 l 1,10,-1
 512 500 l 1,11,-1
 224 -250 l 1,12,-1
 130 -250 l 1,13,-1
 237 25 l 1,14,15
 81 413 81 413 46 500 c 1,16,-1
 141 500 l 1,8,-1
EndSplineSet
EndChar

StartChar: dotlessi
Encoding: 305 305 172
Width: 251
Flags: W
LayerCount: 2
Fore
SplineSet
86 500 m 1,0,-1
 171 500 l 1,1,-1
 171 0 l 1,2,-1
 86 0 l 1,3,-1
 86 500 l 1,0,-1
EndSplineSet
EndChar

StartChar: Lslash
Encoding: 321 321 173
Width: 546
Flags: W
LayerCount: 2
Fore
SplineSet
24 180 m 1,0,-1
 24 270 l 1,1,-1
 95 300 l 1,2,-1
 95 700 l 1,3,-1
 185 700 l 1,4,-1
 185 339 l 1,5,-1
 377 421 l 1,6,-1
 377 331 l 1,7,-1
 185 249 l 1,8,-1
 185 66 l 1,9,-1
 524 66 l 1,10,-1
 524 0 l 1,11,-1
 95 0 l 1,12,-1
 95 210 l 1,13,-1
 24 180 l 1,0,-1
EndSplineSet
EndChar

StartChar: lslash
Encoding: 322 322 174
Width: 394
Flags: W
LayerCount: 2
Fore
SplineSet
148 750 m 1,0,-1
 233 750 l 1,1,-1
 233 366 l 1,2,-1
 346 421 l 1,3,-1
 346 331 l 1,4,-1
 233 276 l 1,5,-1
 233 0 l 1,6,-1
 148 0 l 1,7,-1
 148 235 l 1,8,-1
 33 180 l 1,9,-1
 33 270 l 1,10,-1
 148 325 l 1,11,-1
 148 750 l 1,0,-1
EndSplineSet
EndChar

StartChar: OE
Encoding: 338 338 175
Width: 1095
Flags: W
LayerCount: 2
Fore
SplineSet
531 616 m 0,0,1
 479 639 479 639 420 639 c 0,2,3
 302 639 302 639 226 555 c 128,-1,4
 150 471 150 471 150 350 c 128,-1,5
 150 229 150 229 226 145 c 128,-1,6
 302 61 302 61 420 61 c 0,7,8
 479 61 479 61 531 84 c 1,9,10
 573 104 573 104 595 121 c 1,11,-1
 595 578 l 1,12,13
 572 598 572 598 531 616 c 0,0,1
420 715 m 0,14,15
 514 715 514 715 595 671 c 1,16,-1
 595 700 l 1,17,-1
 1041 700 l 1,18,-1
 1041 636 l 1,19,-1
 685 636 l 1,20,-1
 685 414 l 1,21,-1
 981 414 l 1,22,-1
 981 350 l 1,23,-1
 685 350 l 1,24,-1
 685 64 l 1,25,-1
 1041 64 l 1,26,-1
 1041 0 l 1,27,-1
 595 0 l 1,28,-1
 595 27 l 1,29,-1
 553 8 l 1,30,31
 498 -15 498 -15 420 -15 c 0,32,33
 264 -15 264 -15 162 91.5 c 128,-1,34
 60 198 60 198 60 350 c 128,-1,35
 60 502 60 502 162 608.5 c 128,-1,36
 264 715 264 715 420 715 c 0,14,15
EndSplineSet
EndChar

StartChar: oe
Encoding: 339 339 176
Width: 936
Flags: W
LayerCount: 2
Fore
SplineSet
527 286 m 1,0,-1
 797 286 l 1,1,2
 790 353 790 353 760 396 c 128,-1,3
 730 439 730 439 672 439 c 0,4,5
 615 439 615 439 575 397 c 128,-1,6
 535 355 535 355 527 286 c 1,0,-1
462 130 m 1,7,8
 441 179 441 179 441 252 c 0,9,10
 441 310 441 310 458 361 c 1,11,-1
 461 371 l 1,12,13
 449 386 449 386 448 387 c 0,14,15
 400 439 400 439 318 439 c 0,16,17
 235 439 235 439 185 384.5 c 128,-1,18
 135 330 135 330 135 250 c 128,-1,19
 135 170 135 170 185 115.5 c 128,-1,20
 235 61 235 61 318 61 c 0,21,22
 400 61 400 61 448 113 c 0,23,24
 450 115 450 115 452.5 118 c 128,-1,25
 455 121 455 121 457.5 124.5 c 128,-1,26
 460 128 460 128 462 130 c 1,7,8
704 -15 m 0,27,28
 572 -15 572 -15 506 60 c 1,29,-1
 496 49 l 1,30,31
 470 23 470 23 419.5 4 c 128,-1,32
 369 -15 369 -15 318 -15 c 0,33,34
 202 -15 202 -15 128 61.5 c 128,-1,35
 54 138 54 138 54 250 c 128,-1,36
 54 362 54 362 128 438.5 c 128,-1,37
 202 515 202 515 318 515 c 0,38,39
 373 515 373 515 422 495.5 c 128,-1,40
 471 476 471 476 497 449 c 2,41,-1
 504 442 l 1,42,-1
 505 444 l 1,43,44
 570 515 570 515 674 515 c 0,45,46
 883 515 883 515 883 220 c 1,47,-1
 524 220 l 1,48,49
 529 158 529 158 569.5 109.5 c 128,-1,50
 610 61 610 61 693 61 c 0,51,52
 789 61 789 61 858 93 c 1,53,-1
 858 14 l 1,54,55
 783 -15 783 -15 704 -15 c 0,27,28
EndSplineSet
EndChar

StartChar: Scaron
Encoding: 352 352 177
Width: 483
Flags: W
LayerCount: 2
Fore
SplineSet
241 852 m 1,0,-1
 310 950 l 1,1,-1
 400 950 l 1,2,-1
 302 817 l 1,3,-1
 180 817 l 1,4,-1
 82 950 l 1,5,-1
 172 950 l 1,6,-1
 241 852 l 1,0,-1
397 579 m 1,7,8
 322 639 322 639 248 639 c 0,9,10
 197 639 197 639 157.5 613 c 128,-1,11
 118 587 118 587 118 540 c 0,12,13
 118 521 118 521 125.5 505 c 128,-1,14
 133 489 133 489 151.5 474.5 c 128,-1,15
 170 460 170 460 180 452.5 c 128,-1,16
 190 445 190 445 217.5 431 c 128,-1,17
 245 417 245 417 248 415 c 0,18,19
 261 408 261 408 294.5 389.5 c 128,-1,20
 328 371 328 371 340 363 c 128,-1,21
 352 355 352 355 377 338.5 c 128,-1,22
 402 322 402 322 412 308.5 c 128,-1,23
 422 295 422 295 435 275.5 c 128,-1,24
 448 256 448 256 453 233 c 128,-1,25
 458 210 458 210 458 182 c 0,26,27
 458 98 458 98 388 41.5 c 128,-1,28
 318 -15 318 -15 228 -15 c 0,29,30
 153 -15 153 -15 83 27 c 0,31,32
 52 45 52 45 28 70 c 1,33,-1
 63 145 l 1,34,35
 91 120 91 120 118 103 c 0,36,37
 182 61 182 61 228 61 c 0,38,39
 286 61 286 61 327 95 c 128,-1,40
 368 129 368 129 368 182 c 0,41,42
 368 229 368 229 333 266 c 128,-1,43
 298 303 298 303 248 328.5 c 128,-1,44
 198 354 198 354 148 381 c 128,-1,45
 98 408 98 408 63 448 c 128,-1,46
 28 488 28 488 28 540 c 0,47,48
 28 617 28 617 94.5 666 c 128,-1,49
 161 715 161 715 248 715 c 0,50,51
 315 715 315 715 381 684 c 0,52,53
 403 674 403 674 431 653 c 1,54,-1
 397 579 l 1,7,8
EndSplineSet
EndChar

StartChar: scaron
Encoding: 353 353 178
Width: 503
Flags: W
LayerCount: 2
Fore
SplineSet
251 652 m 1,0,-1
 320 750 l 1,1,-1
 410 750 l 1,2,-1
 312 617 l 1,3,-1
 190 617 l 1,4,-1
 92 750 l 1,5,-1
 182 750 l 1,6,-1
 251 652 l 1,0,-1
54 65 m 1,7,-1
 108 122 l 1,8,9
 127 107 127 107 157 91 c 0,10,11
 215 61 215 61 257 61 c 0,12,13
 294 61 294 61 330 81.5 c 128,-1,14
 366 102 366 102 366 139 c 0,15,16
 366 173 366 173 331.5 195 c 128,-1,17
 297 217 297 217 215 247 c 0,18,19
 181 259 181 259 162 267 c 128,-1,20
 143 275 143 275 118.5 290.5 c 128,-1,21
 94 306 94 306 82.5 327 c 128,-1,22
 71 348 71 348 71 375 c 0,23,24
 71 438 71 438 129 476.5 c 128,-1,25
 187 515 187 515 260 515 c 0,26,27
 314 515 314 515 376 489 c 0,28,29
 402 478 402 478 425 463 c 1,30,-1
 374 402 l 1,31,32
 358 412 358 412 339 420 c 0,33,34
 295 439 295 439 260 439 c 0,35,36
 219 439 219 439 186.5 421 c 128,-1,37
 154 403 154 403 154 375 c 0,38,39
 154 366 154 366 162 357.5 c 128,-1,40
 170 349 170 349 187.5 341 c 128,-1,41
 205 333 205 333 217.5 328 c 128,-1,42
 230 323 230 323 253 315 c 0,43,44
 309 294 309 294 336.5 281.5 c 128,-1,45
 364 269 364 269 394.5 248 c 128,-1,46
 425 227 425 227 437 201 c 128,-1,47
 449 175 449 175 449 139 c 0,48,49
 449 88 449 88 415 51.5 c 128,-1,50
 381 15 381 15 339 0 c 128,-1,51
 297 -15 297 -15 257 -15 c 0,52,53
 196 -15 196 -15 118 25 c 0,54,55
 84 43 84 43 54 65 c 1,7,-1
EndSplineSet
EndChar

StartChar: Ydieresis
Encoding: 376 376 179
Width: 631
Flags: W
LayerCount: 2
Fore
SplineSet
360 950 m 1,0,-1
 445 950 l 1,1,-1
 445 858 l 1,2,-1
 360 858 l 1,3,-1
 360 950 l 1,0,-1
185 950 m 1,4,-1
 270 950 l 1,5,-1
 270 858 l 1,6,-1
 185 858 l 1,7,-1
 185 950 l 1,4,-1
501 700 m 1,8,-1
 591 700 l 1,9,-1
 352 321 l 1,10,-1
 352 0 l 1,11,-1
 268 0 l 1,12,-1
 268 321 l 1,13,-1
 40 700 l 1,14,-1
 130 700 l 1,15,-1
 311 400 l 1,16,-1
 501 700 l 1,8,-1
EndSplineSet
EndChar

StartChar: Zcaron
Encoding: 381 381 180
Width: 595
Flags: W
LayerCount: 2
Fore
SplineSet
297 852 m 1,0,-1
 366 950 l 1,1,-1
 456 950 l 1,2,-1
 358 817 l 1,3,-1
 236 817 l 1,4,-1
 138 950 l 1,5,-1
 228 950 l 1,6,-1
 297 852 l 1,0,-1
43 66 m 1,7,-1
 442 634 l 1,8,-1
 43 634 l 1,9,-1
 43 700 l 1,10,-1
 552 700 l 1,11,-1
 552 634 l 1,12,-1
 153 66 l 1,13,-1
 552 66 l 1,14,-1
 552 0 l 1,15,-1
 43 0 l 1,16,-1
 43 66 l 1,7,-1
EndSplineSet
EndChar

StartChar: zcaron
Encoding: 382 382 181
Width: 467
Flags: W
LayerCount: 2
Fore
SplineSet
233 652 m 1,0,-1
 302 750 l 1,1,-1
 392 750 l 1,2,-1
 294 617 l 1,3,-1
 172 617 l 1,4,-1
 74 750 l 1,5,-1
 164 750 l 1,6,-1
 233 652 l 1,0,-1
413 500 m 1,7,-1
 413 424 l 1,8,-1
 144 76 l 1,9,-1
 413 76 l 1,10,-1
 413 0 l 1,11,-1
 54 0 l 1,12,-1
 54 76 l 1,13,-1
 323 424 l 1,14,-1
 54 424 l 1,15,-1
 54 500 l 1,16,-1
 413 500 l 1,7,-1
EndSplineSet
EndChar

StartChar: florin
Encoding: 402 402 182
Width: 492
Flags: W
LayerCount: 2
Fore
SplineSet
214 -74 m 2,0,-1
 215 423 l 1,1,-1
 138 423 l 1,2,-1
 138 500 l 1,3,-1
 216 500 l 1,4,-1
 217 619 l 2,5,6
 217 678 217 678 253.5 714 c 128,-1,7
 290 750 290 750 342 750 c 2,8,-1
 435 750 l 1,9,-1
 435 673 l 1,10,-1
 387 673 l 2,11,12
 335 673 335 673 318.5 652 c 128,-1,13
 302 631 302 631 302 574 c 2,14,-1
 301 500 l 1,15,-1
 433 500 l 1,16,-1
 432 423 l 1,17,-1
 300 423 l 1,18,-1
 297 -128 l 1,19,20
 293 -184 293 -184 258 -217 c 128,-1,21
 223 -250 223 -250 172 -250 c 2,22,-1
 49 -250 l 1,23,-1
 49 -173 l 1,24,-1
 127 -173 l 2,25,26
 179 -173 179 -173 196.5 -151.5 c 128,-1,27
 214 -130 214 -130 214 -74 c 2,0,-1
EndSplineSet
EndChar

StartChar: circumflex
Encoding: 710 710 183
Width: 418
Flags: W
LayerCount: 2
Fore
SplineSet
277 617 m 1,0,-1
 208 715 l 1,1,-1
 139 617 l 1,2,-1
 49 617 l 1,3,-1
 147 750 l 1,4,-1
 269 750 l 1,5,-1
 367 617 l 1,6,-1
 277 617 l 1,0,-1
EndSplineSet
EndChar

StartChar: caron
Encoding: 711 711 184
Width: 416
Flags: W
LayerCount: 2
Fore
SplineSet
208 652 m 1,0,-1
 277 750 l 1,1,-1
 367 750 l 1,2,-1
 269 617 l 1,3,-1
 147 617 l 1,4,-1
 49 750 l 1,5,-1
 139 750 l 1,6,-1
 208 652 l 1,0,-1
EndSplineSet
EndChar

StartChar: dotaccent
Encoding: 729 729 185
Width: 234
Flags: W
LayerCount: 2
Fore
SplineSet
67 695 m 128,-1,1
 67 718 67 718 83.5 734 c 128,-1,2
 100 750 100 750 122 750 c 128,-1,3
 144 750 144 750 160.5 734 c 128,-1,4
 177 718 177 718 177 695 c 128,-1,5
 177 672 177 672 160.5 656 c 128,-1,6
 144 640 144 640 122 640 c 128,-1,7
 100 640 100 640 83.5 656 c 128,-1,0
 67 672 67 672 67 695 c 128,-1,1
EndSplineSet
EndChar

StartChar: ring
Encoding: 730 730 186
Width: 277
Flags: W
LayerCount: 2
Fore
SplineSet
104 668 m 128,-1,1
 104 651 104 651 116.5 638.5 c 128,-1,2
 129 626 129 626 146 626 c 128,-1,3
 163 626 163 626 175.5 638.5 c 128,-1,4
 188 651 188 651 188 668 c 128,-1,5
 188 685 188 685 175.5 697.5 c 128,-1,6
 163 710 163 710 146 710 c 128,-1,7
 129 710 129 710 116.5 697.5 c 128,-1,0
 104 685 104 685 104 668 c 128,-1,1
64 668 m 128,-1,9
 64 702 64 702 88 726 c 128,-1,10
 112 750 112 750 146 750 c 128,-1,11
 180 750 180 750 204 726 c 128,-1,12
 228 702 228 702 228 668 c 128,-1,13
 228 634 228 634 204 610 c 128,-1,14
 180 586 180 586 146 586 c 128,-1,15
 112 586 112 586 88 610 c 128,-1,8
 64 634 64 634 64 668 c 128,-1,9
EndSplineSet
EndChar

StartChar: tilde
Encoding: 732 732 187
Width: 343
Flags: W
LayerCount: 2
Fore
SplineSet
101 750 m 0,0,1
 124 750 124 750 163 730.5 c 128,-1,2
 202 711 202 711 225 711 c 0,3,4
 237 711 237 711 243.5 720.5 c 128,-1,5
 250 730 250 730 251 740 c 2,6,-1
 252 750 l 1,7,-1
 318 750 l 1,8,9
 318 706 318 706 298 673.5 c 128,-1,10
 278 641 278 641 238 641 c 0,11,12
 213 641 213 641 156 665 c 0,13,14
 122 680 122 680 109 680 c 0,15,16
 100 680 100 680 92.5 670 c 128,-1,17
 85 660 85 660 82 650 c 2,18,-1
 79 641 l 1,19,-1
 16 641 l 1,20,21
 16 687 16 687 44 718.5 c 128,-1,22
 72 750 72 750 101 750 c 0,0,1
EndSplineSet
EndChar

StartChar: endash
Encoding: 8211 8211 188
Width: 591
Flags: W
LayerCount: 2
Fore
SplineSet
39 187 m 1,0,-1
 39 277 l 1,1,-1
 552 277 l 1,2,-1
 552 187 l 1,3,-1
 39 187 l 1,0,-1
EndSplineSet
EndChar

StartChar: emdash
Encoding: 8212 8212 189
Width: 764
Flags: W
LayerCount: 2
Fore
SplineSet
39 187 m 1,0,-1
 39 277 l 1,1,-1
 725 277 l 1,2,-1
 725 187 l 1,3,-1
 39 187 l 1,0,-1
EndSplineSet
EndChar

StartChar: quoteleft
Encoding: 8216 8216 190
Width: 145
Flags: W
LayerCount: 2
Fore
SplineSet
57 591 m 1,0,-1
 17 770 l 1,1,-1
 97 770 l 1,2,-1
 117 591 l 1,3,-1
 57 591 l 1,0,-1
EndSplineSet
EndChar

StartChar: quoteright
Encoding: 8217 8217 191
Width: 146
Flags: W
LayerCount: 2
Fore
SplineSet
129 770 m 1,0,-1
 89 591 l 1,1,-1
 29 591 l 1,2,-1
 49 770 l 1,3,-1
 129 770 l 1,0,-1
EndSplineSet
EndChar

StartChar: quotedblleft
Encoding: 8220 8220 192
Width: 301
Flags: W
LayerCount: 2
Fore
SplineSet
207 591 m 1,0,-1
 167 770 l 1,1,-1
 247 770 l 1,2,-1
 267 591 l 1,3,-1
 207 591 l 1,0,-1
69 591 m 1,4,-1
 29 770 l 1,5,-1
 109 770 l 1,6,-1
 129 591 l 1,7,-1
 69 591 l 1,4,-1
EndSplineSet
EndChar

StartChar: quotedblright
Encoding: 8221 8221 193
Width: 301
Flags: W
LayerCount: 2
Fore
SplineSet
134 770 m 1,0,-1
 94 591 l 1,1,-1
 34 591 l 1,2,-1
 54 770 l 1,3,-1
 134 770 l 1,0,-1
272 770 m 1,4,-1
 232 591 l 1,5,-1
 172 591 l 1,6,-1
 192 770 l 1,7,-1
 272 770 l 1,4,-1
EndSplineSet
EndChar

StartChar: bullet
Encoding: 8226 8226 194
Width: 350
Flags: W
LayerCount: 2
Fore
SplineSet
49 357 m 128,-1,1
 49 408 49 408 85 444 c 128,-1,2
 121 480 121 480 172 480 c 128,-1,3
 223 480 223 480 259 444 c 128,-1,4
 295 408 295 408 295 357 c 128,-1,5
 295 306 295 306 259 270 c 128,-1,6
 223 234 223 234 172 234 c 128,-1,7
 121 234 121 234 85 270 c 128,-1,0
 49 306 49 306 49 357 c 128,-1,1
EndSplineSet
EndChar

StartChar: perthousand
Encoding: 8240 8240 195
Width: 979
Flags: W
LayerCount: 2
Fore
SplineSet
483 700 m 1,0,-1
 573 700 l 1,1,-1
 93 -28 l 1,2,-1
 3 -28 l 1,3,-1
 483 700 l 1,0,-1
730 126 m 0,4,5
 730 93 730 93 751.5 69 c 128,-1,6
 773 45 773 45 805 45 c 128,-1,7
 837 45 837 45 859 69 c 128,-1,8
 881 93 881 93 881 126 c 0,9,10
 881 160 881 160 859 184 c 128,-1,11
 837 208 837 208 805 208 c 128,-1,12
 773 208 773 208 751.5 184 c 128,-1,13
 730 160 730 160 730 126 c 0,4,5
670 126 m 0,14,15
 670 185 670 185 709.5 226.5 c 128,-1,16
 749 268 749 268 805 268 c 0,17,18
 862 268 862 268 901.5 226.5 c 128,-1,19
 941 185 941 185 941 126 c 0,20,21
 941 68 941 68 901.5 26.5 c 128,-1,22
 862 -15 862 -15 805 -15 c 0,23,24
 749 -15 749 -15 709.5 26.5 c 128,-1,25
 670 68 670 68 670 126 c 0,14,15
397 126 m 0,26,27
 397 93 397 93 418.5 69 c 128,-1,28
 440 45 440 45 472 45 c 128,-1,29
 504 45 504 45 526 69 c 128,-1,30
 548 93 548 93 548 126 c 0,31,32
 548 160 548 160 526 184 c 128,-1,33
 504 208 504 208 472 208 c 128,-1,34
 440 208 440 208 418.5 184 c 128,-1,35
 397 160 397 160 397 126 c 0,26,27
337 126 m 0,36,37
 337 185 337 185 376.5 226.5 c 128,-1,38
 416 268 416 268 472 268 c 0,39,40
 529 268 529 268 568.5 226.5 c 128,-1,41
 608 185 608 185 608 126 c 0,42,43
 608 68 608 68 568.5 26.5 c 128,-1,44
 529 -15 529 -15 472 -15 c 0,45,46
 416 -15 416 -15 376.5 26.5 c 128,-1,47
 337 68 337 68 337 126 c 0,36,37
85 573 m 0,48,49
 85 540 85 540 106.5 516 c 128,-1,50
 128 492 128 492 160 492 c 128,-1,51
 192 492 192 492 214 516 c 128,-1,52
 236 540 236 540 236 573 c 0,53,54
 236 607 236 607 214 631 c 128,-1,55
 192 655 192 655 160 655 c 128,-1,56
 128 655 128 655 106.5 631 c 128,-1,57
 85 607 85 607 85 573 c 0,48,49
25 573 m 0,58,59
 25 632 25 632 64.5 673.5 c 128,-1,60
 104 715 104 715 160 715 c 0,61,62
 217 715 217 715 256.5 673.5 c 128,-1,63
 296 632 296 632 296 573 c 0,64,65
 296 515 296 515 256.5 473.5 c 128,-1,66
 217 432 217 432 160 432 c 0,67,68
 104 432 104 432 64.5 473.5 c 128,-1,69
 25 515 25 515 25 573 c 0,58,59
EndSplineSet
EndChar

StartChar: fraction
Encoding: 8260 8260 196
Width: 576
Flags: W
LayerCount: 2
Fore
SplineSet
483 700 m 1,0,-1
 573 700 l 1,1,-1
 93 -28 l 1,2,-1
 3 -28 l 1,3,-1
 483 700 l 1,0,-1
EndSplineSet
EndChar

StartChar: Euro
Encoding: 8364 8364 197
Width: 700
Flags: W
LayerCount: 2
Fore
SplineSet
229 372 m 1,0,-1
 229 350 l 2,1,2
 229 313 229 313 234 288 c 1,3,-1
 553 288 l 1,4,-1
 553 198 l 1,5,-1
 262 198 l 1,6,7
 292 138 292 138 338.5 104.5 c 128,-1,8
 385 71 385 71 441 71 c 0,9,10
 518 71 518 71 578 128 c 1,11,-1
 633 61 l 1,12,13
 552 -15 552 -15 441 -15 c 0,14,15
 348 -15 348 -15 272 43.5 c 128,-1,16
 196 102 196 102 157 198 c 1,17,-1
 67 198 l 1,18,-1
 67 288 l 1,19,-1
 133 288 l 1,20,21
 129 315 129 315 129 350 c 2,22,-1
 129 372 l 1,23,-1
 67 372 l 1,24,-1
 67 462 l 1,25,-1
 144 462 l 1,26,27
 174 573 174 573 256.5 644 c 128,-1,28
 339 715 339 715 441 715 c 0,29,30
 553 715 553 715 633 638 c 1,31,-1
 578 571 l 1,32,33
 517 629 517 629 441 629 c 0,34,35
 376 629 376 629 323 583.5 c 128,-1,36
 270 538 270 538 246 462 c 1,37,-1
 553 462 l 1,38,-1
 553 372 l 1,39,-1
 229 372 l 1,0,-1
EndSplineSet
EndChar

StartChar: trademark
Encoding: 8482 8482 198
Width: 1302
Flags: W
LayerCount: 2
Fore
SplineSet
720 539 m 1,0,-1
 647 643 l 1,1,-1
 647 414 l 1,2,-1
 610 414 l 1,3,-1
 610 700 l 1,4,-1
 647 700 l 1,5,-1
 735 574 l 1,6,-1
 823 700 l 1,7,-1
 860 700 l 1,8,-1
 860 414 l 1,9,-1
 823 414 l 1,10,-1
 823 643 l 1,11,-1
 749 539 l 1,12,-1
 720 539 l 1,0,-1
366 700 m 1,13,-1
 575 700 l 1,14,-1
 575 674 l 1,15,-1
 489 674 l 1,16,-1
 489 414 l 1,17,-1
 452 414 l 1,18,-1
 452 674 l 1,19,-1
 366 674 l 1,20,-1
 366 700 l 1,13,-1
EndSplineSet
EndChar

StartChar: minus
Encoding: 8722 8722 199
Width: 452
Flags: W
LayerCount: 2
Fore
SplineSet
8 301 m 1,0,-1
 8 391 l 1,1,-1
 428 391 l 1,2,-1
 428 301 l 1,3,-1
 8 301 l 1,0,-1
EndSplineSet
EndChar

StartChar: fi
Encoding: 64257 64257 200
Width: 522
Flags: W
LayerCount: 2
Fore
SplineSet
404 673 m 1,0,-1
 404 750 l 1,1,-1
 489 750 l 1,2,-1
 489 673 l 1,3,-1
 404 673 l 1,0,-1
183 500 m 1,4,-1
 489 500 l 1,5,-1
 489 0 l 1,6,-1
 404 0 l 1,7,-1
 404 423 l 1,8,-1
 183 423 l 1,9,-1
 183 0 l 1,10,-1
 98 0 l 1,11,-1
 98 423 l 1,12,-1
 20 423 l 1,13,-1
 20 500 l 1,14,-1
 98 500 l 1,15,-1
 98 619 l 2,16,17
 98 678 98 678 134 714 c 128,-1,18
 170 750 170 750 223 750 c 2,19,-1
 346 750 l 1,20,-1
 346 673 l 1,21,-1
 268 673 l 2,22,23
 216 673 216 673 199.5 652 c 128,-1,24
 183 631 183 631 183 574 c 2,25,-1
 183 500 l 1,4,-1
EndSplineSet
EndChar

StartChar: fl
Encoding: 64258 64258 201
Width: 528
Flags: W
LayerCount: 2
Fore
SplineSet
223 750 m 2,0,-1
 489 750 l 1,1,-1
 489 0 l 1,2,-1
 404 0 l 1,3,-1
 404 673 l 1,4,-1
 268 673 l 2,5,6
 216 673 216 673 199.5 652 c 128,-1,7
 183 631 183 631 183 574 c 2,8,-1
 183 500 l 1,9,-1
 315 500 l 1,10,-1
 315 423 l 1,11,-1
 183 423 l 1,12,-1
 183 0 l 1,13,-1
 98 0 l 1,14,-1
 98 423 l 1,15,-1
 20 423 l 1,16,-1
 20 500 l 1,17,-1
 98 500 l 1,18,-1
 98 619 l 2,19,20
 98 678 98 678 134 714 c 128,-1,21
 170 750 170 750 223 750 c 2,0,-1
EndSplineSet
EndChar

